<svg width="837" height="847" viewBox="0 0 837 847" fill="none" xmlns="http://www.w3.org/2000/svg">
<g filter="url(#filter0_d_13_518)">
<rect x="402.325" y="242.754" width="15.474" height="15.474" rx="7.73702" fill="url(#paint0_linear_13_518)"/>
</g>
<g filter="url(#filter1_d_13_518)">
<rect x="788" y="407" width="15.474" height="15.474" rx="7.73702" fill="url(#paint1_linear_13_518)"/>
</g>
<g filter="url(#filter2_d_13_518)">
<rect x="656.099" y="598.657" width="15.474" height="15.474" rx="7.73702" fill="url(#paint2_linear_13_518)"/>
</g>
<g filter="url(#filter3_d_13_518)">
<rect x="362.092" y="586.277" width="31.9797" height="31.9797" rx="15.9898" fill="url(#paint3_linear_13_518)"/>
</g>
<g filter="url(#filter4_d_13_518)">
<rect x="646.815" y="538.824" width="18.5688" height="18.5688" rx="9.28442" fill="url(#paint4_linear_13_518)"/>
</g>
<g filter="url(#filter5_d_13_518)">
<rect x="149.582" y="537.792" width="18.5688" height="18.5688" rx="9.28442" fill="url(#paint5_linear_13_518)"/>
</g>
<g filter="url(#filter6_d_13_518)">
<rect x="548.812" y="622.383" width="9.28442" height="9.28442" rx="4.64221" fill="url(#paint6_linear_13_518)"/>
</g>
<path d="M464.701 94.1019C464.701 94.1019 373.663 97.0473 350.62 139.018C328.18 179.893 370.825 256.7 370.825 256.7C370.825 256.7 433.12 359.216 415.948 425.098C386.631 537.571 199.511 421.371 132.695 516.477C58.2842 622.393 173.263 845.44 173.263 845.44" stroke="#FCC822" stroke-width="0.8"/>
<path d="M762.826 789.135C762.826 789.135 825.117 722.679 811.732 676.707C798.697 631.937 714.232 607.781 714.232 607.781C714.232 607.781 597.693 579.34 563.25 520.612C504.45 420.351 718.93 370.203 698.926 255.707C676.648 128.197 437.627 51.7813 437.627 51.7813" stroke="#FCC822" stroke-width="0.8"/>
<path d="M517.488 414.645C529.692 418.969 543.749 424.994 558.734 450.946C573.717 476.897 585.612 514.744 575.725 526.638C565.84 538.532 549.465 535.597 546.994 528.645C544.52 521.695 517.488 414.645 517.488 414.645Z" fill="#FF04AA"/>
<path d="M454.072 416.48C436.8 422.717 419.528 437.592 411.131 457.98C402.736 478.371 398.441 502.541 406.335 513.394C415.931 526.589 438.959 519.392 444.957 507.638C450.954 495.883 454.072 416.48 454.072 416.48Z" fill="#FF04AA"/>
<path d="M489.63 410.521C463.296 411.289 445.606 412.556 441.168 433.272C437.27 451.462 437.379 534.118 435.433 555.168C432.358 588.424 431.919 596.046 434.509 597.155C437.097 598.266 464.288 604.37 506.276 602.706C548.265 601.04 559.364 599.005 560.843 594.195C562.323 589.387 559.918 580.323 559.179 574.775C558.438 569.226 540.653 460.501 536.612 440.3C532.542 419.956 527.732 409.411 489.63 410.521Z" fill="#FF7BBB"/>
<path d="M552.547 495.119C562.808 493.666 576.028 499.755 575.873 513.193C575.719 526.632 561.198 536.363 542.353 534.046C523.507 531.731 485.661 524.315 470.987 520.916C456.311 517.518 441.79 514.429 437.619 510.258C433.449 506.087 435.92 501.298 439.473 501.298C443.026 501.298 446.269 506.087 475.158 506.087C504.043 506.087 531.848 498.054 552.547 495.119Z" fill="#FDC68A"/>
<path d="M419.281 516.039C408.144 513.756 405.847 499.248 408.246 482.216C409.926 470.3 422.34 440.78 428.507 422.924C435.12 403.771 438.716 398.691 442.081 400.245C446.421 402.252 441.306 409.129 441.786 418.004C442.266 426.878 443.606 460.472 443.779 477.745C444.019 501.733 433.233 518.899 419.281 516.039Z" fill="#FDC68A"/>
<path d="M449.76 299.885C449.76 299.885 427.245 291.248 442.023 277.294C456.796 263.337 481.419 262.674 489.16 268.652C496.898 274.636 494.787 297.895 491.973 299.221C489.16 300.553 453.277 303.208 449.76 299.885Z" fill="#5A381D"/>
<path d="M500.774 414.804L497.001 363.779L476.967 362.443L476.12 412.708C478.155 425.555 499.296 421.734 500.774 414.804Z" fill="#ED9F5E"/>
<path d="M535.571 339.643C540.027 367.148 524.855 399.578 500.622 403.536C468.554 408.768 447.439 376.901 442.98 349.39C438.517 321.882 458.364 298.776 485.66 294.315C512.955 289.853 531.109 312.136 535.571 339.643Z" fill="#FDC68A"/>
<path d="M492.31 364.942C493.685 364.393 495.166 364.052 496.69 364.061C498.187 364.074 499.838 364.436 500.983 365.698C501.518 366.318 501.825 367.306 501.501 368.114C501.42 368.542 501.127 368.847 500.943 369.21C500.671 369.495 500.404 369.79 500.11 370.041C498.907 371.024 497.474 371.531 496.06 371.948C497.346 371.221 498.677 370.57 499.694 369.574C500.729 368.645 501.28 367.167 500.356 366.22C499.517 365.245 498.05 364.822 496.654 364.683C495.227 364.551 493.774 364.716 492.31 364.942Z" fill="#9D5F54"/>
<path d="M481.858 381.566C484.239 382.322 486.544 382.946 488.905 383.61C491.245 384.29 493.968 383.651 496.239 384.588C493.617 384.451 490.758 385.256 488.344 384.588C487.147 384.236 485.965 383.845 484.855 383.354C483.748 382.868 482.684 382.292 481.858 381.566Z" fill="#9D5F54"/>
<path d="M490.487 384.802C492.816 384.242 494.945 383.573 497.153 382.918C499.369 382.295 501.569 381.625 504.042 381.343C502.291 382.774 500.203 383.72 497.957 384.402C496.82 384.717 495.645 384.977 494.397 385.075C493.156 385.179 491.838 385.151 490.487 384.802Z" fill="#9D5F54"/>
<path d="M507.026 357.197C507.259 358.085 508.165 358.619 509.053 358.388C509.94 358.158 510.474 357.25 510.244 356.362C510.013 355.474 509.105 354.941 508.217 355.171C507.329 355.402 506.796 356.31 507.026 357.197Z" fill="#5B3118"/>
<path d="M504.76 340.451C516.164 342.229 526.771 345.107 519.425 344.505C512.078 343.905 497.238 339.278 504.76 340.451Z" fill="#935025"/>
<path d="M480.268 357.197C480.038 358.085 479.131 358.619 478.242 358.388C477.354 358.158 476.821 357.25 477.051 356.362C477.283 355.474 478.19 354.941 479.078 355.171C479.965 355.402 480.5 356.31 480.268 357.197Z" fill="#5B3118"/>
<path d="M482.529 340.451C471.122 342.229 460.516 345.107 467.862 344.505C475.21 343.905 490.05 339.278 482.529 340.451Z" fill="#935025"/>
<path d="M470.881 361.702C470.881 362.64 468.451 363.4 465.453 363.4C462.454 363.4 460.022 362.64 460.022 361.702C460.022 360.765 462.454 360.005 465.453 360.005C468.451 360.005 470.881 360.765 470.881 361.702Z" fill="#F69D98"/>
<path d="M528.118 361.702C528.118 362.64 525.687 363.4 522.69 363.4C519.692 363.4 517.26 362.64 517.26 361.702C517.26 360.765 519.692 360.005 522.69 360.005C525.687 360.005 528.118 360.765 528.118 361.702Z" fill="#F69D98"/>
<path d="M502.826 292.962L498.403 289.129C491.68 284.116 480.721 282.499 462.237 287.421C447.499 291.346 430.537 299.317 432.332 324.866C433.081 335.544 438.252 343.824 440.808 353.907C443.29 354.028 445.168 353.625 447.214 355.106C448.805 356.256 450.898 359.735 451.519 360.826C450.419 348.912 450.187 338.944 461.048 332.137C470.955 325.93 474.125 315.626 472.541 310.608C479.778 308.664 492.369 311.303 497.734 306.238C503.953 300.371 507.598 297.25 502.826 292.962Z" fill="#794D2E"/>
<path d="M490.017 287.084C482.816 287.948 469.688 296.651 466.097 302.946L465.583 303.415C458.762 311.714 489.109 333.07 496.13 336.486C503.896 340.264 514.995 347.87 523.056 349.237C523.169 347.956 519.904 337.825 519.794 337.211C521.811 341.646 523.501 343.291 524.631 344.635C532.789 354.337 535.461 360.937 536.515 367.665C543.248 347.353 544.869 315.635 528.229 299.165C519.048 290.077 508.722 284.84 490.017 287.084Z" fill="#794D2E"/>
<path d="M453.763 358.234C455.759 363.82 455.693 367.972 452.268 369.218C448.841 370.469 441.46 367.739 439.466 362.151C437.469 356.57 438.634 351.033 442.062 349.785C445.494 348.526 451.771 352.66 453.763 358.234Z" fill="#FDC68A"/>
<path d="M434.478 407.018C433.957 401.321 434.657 394.323 436.262 390.884C439.076 384.86 445.176 385.327 448.833 386.984C452.49 388.641 452.516 396.452 451.289 398.986C448.005 405.768 442.599 406.591 441.535 409.535C440.142 411.093 434.489 409.454 434.478 407.018Z" fill="#FDC68A"/>
<path d="M443.143 383.831C449.384 385.087 449.26 387.974 449.13 392.557C449.024 396.239 444.699 396.871 440.033 396.161C436.721 395.656 435.425 393.245 435.425 393.245C435.425 393.245 437.628 382.722 443.143 383.831Z" fill="#FDC68A"/>
<path d="M438.533 390.992C438.437 391.985 438.471 393.004 438.782 393.915C439.079 394.839 439.804 395.521 440.681 395.888C441.551 396.277 442.526 396.45 443.499 396.554C444.468 396.666 445.443 396.65 446.353 396.395C447.263 396.144 448.082 395.611 448.639 394.848C449.209 394.094 449.52 393.156 449.65 392.208C449.808 391.238 449.602 390.299 449.32 389.338C449.064 388.387 448.758 387.421 448.12 386.642C448.838 387.351 449.274 388.303 449.618 389.244C449.775 389.729 449.945 390.183 450.048 390.707C450.138 391.22 450.154 391.738 450.114 392.255C450.036 393.285 449.696 394.312 449.075 395.169C448.464 396.035 447.53 396.666 446.519 396.959C445.507 397.272 444.438 397.256 443.434 397.123C442.431 396.992 441.412 396.798 440.463 396.348C439.519 395.892 438.727 395.033 438.476 394.011C438.224 392.995 438.335 391.968 438.533 390.992Z" fill="#D28C56"/>
<path d="M445.601 399.512C447.8 403.187 451.421 401.709 453.781 399.093C456.14 396.474 457.118 394.214 455.927 392.524C454.735 390.834 446.423 390.603 445.744 393.045C445.065 395.487 447.082 396.295 449.121 396.032C445.393 397.486 445.601 399.512 445.601 399.512Z" fill="#FCBC81"/>
<path d="M438.385 389.353C438.562 389.803 438.582 390.199 438.699 390.545C438.722 390.726 438.792 390.867 438.853 390.972C438.907 391.087 439.083 391.151 439.328 391.191C439.186 391.378 438.88 391.506 438.584 391.349C438.302 391.197 438.198 390.918 438.116 390.694C438.037 390.215 438.07 389.74 438.385 389.353Z" fill="#D28C56"/>
<path d="M446.158 400.51C445.746 399.868 445.738 399.009 446.023 398.284C446.307 397.549 446.867 396.96 447.483 396.503C448.119 396.066 448.833 395.755 449.569 395.576C450.301 395.373 451.059 395.324 451.805 395.312C450.357 395.643 448.888 395.985 447.724 396.842C447.131 397.242 446.631 397.777 446.316 398.412C446.016 399.045 445.891 399.804 446.158 400.51Z" fill="#D28C56"/>
<path d="M446.398 392.293C445.84 393.063 445.686 394.074 446.198 394.781C446.419 395.15 446.786 395.415 447.185 395.632C447.583 395.853 448.039 395.981 448.497 396.132C448.019 396.135 447.519 396.113 447.054 395.923C446.588 395.751 446.15 395.442 445.849 395.01C445.574 394.565 445.453 394.008 445.582 393.506C445.695 393.003 446.003 392.569 446.398 392.293Z" fill="#D28C56"/>
<path d="M526.788 475.599C526.951 478.286 511.252 481.426 491.725 482.614C472.195 483.801 456.233 482.587 456.07 479.9C455.907 477.213 471.606 474.072 491.133 472.887C510.661 471.699 526.624 472.914 526.788 475.599Z" fill="#FF04AA"/>
<path d="M147.401 406.986C147.649 403.739 147.253 400.286 144.672 398.611C139.747 395.416 133.756 391.288 131.227 388.694C128.858 386.262 132.026 380.823 134.38 378.005C136.736 375.19 139.678 374.696 141.913 376.566C144.333 378.59 147.108 380.584 152.811 386.256C156.316 389.745 154.184 392.983 155.74 405.835C154.453 408.045 149.338 408.684 147.401 406.986Z" fill="#FDC68A"/>
<path d="M145.794 382.619C140.639 375.873 137.949 371.627 136.244 368.517C134.54 365.406 133.998 363.89 132.335 365.058C130.672 366.225 134.314 375.078 134.314 375.078C134.314 375.078 121.861 368.081 120.209 371.599C118.074 376.149 117.096 378.652 120.804 382.127C124.512 385.604 133.15 388.708 137.006 392.306C140.86 395.905 144.694 391.623 145.794 382.619Z" fill="#FDC68A"/>
<path d="M125.365 381.347L124.153 353.341L150.622 352.196L151.834 380.202L125.365 381.347ZM122.938 337.14C122.833 334.749 122.844 332.383 122.974 330.039C123.099 327.697 123.571 325.452 124.392 323.304C125.211 321.16 126.489 319.08 128.227 317.066C129.964 315.051 132.338 313.182 135.342 311.453C136.564 310.717 138.318 309.731 140.602 308.49C142.886 307.251 145.161 305.784 147.428 304.086C149.69 302.395 151.636 300.513 153.257 298.445C154.878 296.381 155.638 294.153 155.534 291.762C155.42 289.143 154.306 287.107 152.189 285.662C150.076 284.212 147.65 283.548 144.918 283.665C142.868 283.754 141.119 284.232 139.677 285.09C138.229 285.951 136.991 286.977 135.96 288.158C134.927 289.345 134.067 290.551 133.378 291.78C132.689 293.007 132.023 294.035 131.373 294.861L110.076 281.067C112.734 273.996 117.166 268.386 123.375 264.238C129.582 260.094 136.787 257.842 144.982 257.488C149.307 257.3 153.718 257.737 158.213 258.797C162.707 259.857 166.806 261.674 170.511 264.253C174.215 266.828 177.273 270.289 179.684 274.633C182.097 278.977 183.442 284.336 183.716 290.711C183.952 296.176 183.171 301.202 181.376 305.784C179.577 310.368 176.191 314.478 171.217 318.113C168.785 319.931 166.288 321.521 163.724 322.886C161.158 324.253 158.795 325.61 156.629 326.956C154.463 328.307 152.697 329.693 151.334 331.121C149.968 332.549 149.329 334.176 149.407 335.994L122.938 337.14Z" fill="url(#paint7_linear_13_518)"/>
<path d="M268.539 393.216C253.423 396.1 232.544 398.4 211.279 428.404C190.014 458.408 172.23 480.638 167.026 488.787C161.823 496.938 155.778 510.434 165.581 521.858C175.383 533.284 193.053 519.631 208.393 502.012C223.734 484.396 239.516 464.321 248.791 450.099C258.064 435.877 272.389 399.461 268.539 393.216Z" fill="#ECECE8"/>
<path d="M144.665 405.358C147.655 405.546 155.016 404.203 157.819 402.649C160.931 412.914 168.199 438.244 174.754 457.143C183.62 482.706 201.971 508.742 184.523 519.959C168.905 530 160.415 522.985 154.207 495.208C147.441 464.937 144.665 405.358 144.665 405.358Z" fill="#ECECE8"/>
<path d="M381.462 331.348C365.678 345.758 315.817 400.486 311.371 407.833C306.925 415.178 336.019 464.555 343.124 454.997C352.014 443.041 384.939 402.647 399.837 379.586C411.318 361.815 417.284 349.031 419.59 341.85C423.7 329.066 422.208 319.24 411.829 316.508C403.152 314.224 391.965 321.758 381.462 331.348Z" fill="#ECECE8"/>
<path d="M284.921 388.788C252.521 388.21 234.607 403.515 229.866 427.191C225.124 450.869 223.281 572.72 223.808 585.714C224.335 598.706 306.521 608.812 354.2 585.714C352.355 566.943 346.824 461.841 346.297 451.157C345.77 440.474 337.867 389.731 284.921 388.788Z" fill="#E0E0E0"/>
<path d="M298.864 396.165L296.235 350.925L269.875 352.155L266.091 396.353C273.872 400.024 290.43 400.098 298.864 396.165Z" fill="#EDA76A"/>
<path d="M250.521 327.791C253.408 335.272 253.35 341.03 248.465 343.197C243.585 345.365 233.031 342.512 230.144 335.03C227.253 327.54 228.873 319.722 233.759 317.556C238.639 315.391 247.634 320.308 250.521 327.791Z" fill="#FDC68A"/>
<path d="M238.458 336.672C242.383 362.29 260.645 379.488 286.416 377.213C309.859 375.143 326.069 342.378 326.727 312.485C327.387 282.594 311.37 258.95 283.064 259.388C239.713 260.059 230.191 282.687 238.458 336.672Z" fill="#FDC68A"/>
<path d="M312.903 325.406C309.922 332.852 309.909 338.607 314.768 340.836C319.619 343.063 330.207 340.343 333.186 332.895C336.17 325.444 334.645 317.609 329.79 315.38C324.938 313.153 315.882 317.956 312.903 325.406Z" fill="#FDC68A"/>
<path d="M272.346 323.659C274.949 322.582 277.781 321.912 280.686 321.967C283.534 322.031 286.675 322.678 288.876 325.075C289.933 326.275 290.406 328.156 289.866 329.703C289.368 331.254 288.338 332.449 287.199 333.369C284.911 335.236 282.191 336.255 279.48 336.988C281.977 335.698 284.443 334.313 286.393 332.465C287.341 331.535 288.167 330.467 288.453 329.301C288.795 328.152 288.479 326.979 287.69 326.074C286.922 325.143 285.754 324.493 284.533 324.031C283.303 323.553 281.967 323.315 280.617 323.171C277.907 322.92 275.121 323.157 272.346 323.659Z" fill="#9D5F54"/>
<path d="M267.976 322.394C267.725 323.36 266.738 323.941 265.77 323.69C264.803 323.438 264.224 322.451 264.475 321.485C264.726 320.518 265.712 319.938 266.68 320.188C267.646 320.438 268.226 321.428 267.976 322.394Z" fill="#5B3118"/>
<path d="M269.514 303.29C254.321 304.347 245.987 310.386 255.642 310.308C265.298 310.234 279.532 302.593 269.514 303.29Z" fill="#935025"/>
<path d="M291.67 322.394C291.921 323.36 292.907 323.941 293.875 323.69C294.84 323.438 295.421 322.451 295.17 321.485C294.918 320.518 293.931 319.938 292.965 320.188C291.998 320.438 291.419 321.428 291.67 322.394Z" fill="#5B3118"/>
<path d="M290.122 303.29C305.313 304.347 313.647 310.386 303.992 310.308C294.338 310.234 280.104 302.593 290.122 303.29Z" fill="#935025"/>
<path d="M254.702 327.295C254.702 328.316 252.056 329.143 248.792 329.143C245.529 329.143 242.884 328.316 242.884 327.295C242.884 326.277 245.529 325.45 248.792 325.45C252.056 325.45 254.702 326.277 254.702 327.295Z" fill="#F69D98"/>
<path d="M316.997 327.295C316.997 328.316 314.352 329.143 311.089 329.143C307.825 329.143 305.18 328.316 305.18 327.295C305.18 326.277 307.825 325.45 311.089 325.45C314.352 325.45 316.997 326.277 316.997 327.295Z" fill="#F69D98"/>
<path d="M240.51 354.436C246.037 366.95 253.755 375.974 262.595 379.448C278.592 385.736 292.451 383.78 304.295 377.106C330.948 362.086 325.627 286.008 325.627 286.008L318.1 287.478C318.1 287.478 320.075 337.417 313.134 345.598C310.179 349.083 298.22 342.293 282.394 342.141C263.685 341.956 248.316 350.289 245.585 346.555C242.308 342.089 237.328 315.97 243.214 287.096C245.558 275.588 231.707 286.726 231.707 286.726C231.707 286.726 233.369 338.255 240.51 354.436Z" fill="#AB662D"/>
<path d="M265.007 256.593L269.759 253.179C276.077 247.931 297.306 242.502 304.982 248.821C303.166 248.856 304.425 249.93 302.599 250.026C313.188 252.404 330.561 256.944 331.781 280.029C332.333 290.504 330.722 304.959 328.736 314.953C326.311 315.2 326.435 314.107 324.511 315.656C323.012 316.864 322.664 317.463 322.113 318.567C322.582 306.853 318.787 290.957 310.311 281.692C306.354 277.368 295.798 279.303 290.067 278.08C282.888 276.544 276.172 274.002 270.666 269.322C264.284 263.899 260.557 261.03 265.007 256.593Z" fill="#AB662D"/>
<path d="M274.116 252.978C280.968 255.317 289.87 257.143 293.759 263.754L291.63 263.114C298.817 271.723 277.447 295.15 271.937 300.739C265.644 307.127 257.471 310.357 249.61 312.247C249.423 310.866 249.586 309.348 249.904 307.907C250.225 307.088 250.464 306.303 250.536 305.635C250.297 306.342 250.076 307.113 249.904 307.907C249.023 310.121 247.444 312.607 246.184 313.9C243.248 316.914 236.315 326.327 235.655 333.648C226.092 295.59 224.304 273.554 242.071 257.568C251.083 249.456 269.406 251.371 274.116 252.978Z" fill="#AB662D"/>
<path d="M266.604 353.921C268.616 354.063 270.618 354.608 272.493 355.293C274.377 355.955 276.194 356.611 278.095 357.02C281.884 357.92 285.836 358.219 289.817 358.87C287.821 359.148 285.807 359.315 283.789 359.245C281.769 359.219 279.741 358.985 277.742 358.531C275.746 358.068 273.817 357.298 272.03 356.407C270.234 355.535 268.491 354.653 266.604 353.921Z" fill="#3F211B"/>
<path d="M345.502 253.848C341.698 250.461 336.926 241.78 329.08 239.308C321.232 236.837 313.314 239.612 307.21 247.302C301.106 254.993 303.705 257.393 305.577 256.175C307.45 254.956 316.243 247.59 320.818 247.581C325.394 247.571 329.525 253.018 336.78 255.966C344.086 258.934 345.25 257.269 345.502 253.848Z" fill="#FDC68A"/>
<path d="M344.553 247.978C343.548 250.613 339.901 254.421 334.745 256.654C349.688 271.671 373.233 323.573 379.521 338.845C385.809 354.114 407.246 356.882 416.381 345.614C425.156 334.79 426.4 322.186 398.633 295.497C373.714 271.544 344.553 247.978 344.553 247.978Z" fill="#ECECE8"/>
<path d="M151.131 391.575C145.284 392.819 143.474 385.785 144.527 382.621C145.581 379.458 145.857 375.829 145.273 373.012C144.688 370.195 144.893 367.241 147.191 366.837C149.49 366.43 149.159 370.197 150.243 376.372C151.328 382.55 157.614 390.198 151.131 391.575Z" fill="#FDC68A"/>
<path d="M722.482 372.338C732.267 368.386 748.211 371.953 762.092 388.984C777.142 407.45 782.462 434.765 785.655 503.942C787.614 546.377 782.184 598.803 782.184 598.803C782.184 598.803 725.353 624.923 674.547 598.23C673.687 572.685 677.993 467.345 684.307 428.308C690.622 389.272 707.555 378.364 722.482 372.338Z" fill="#5497FF"/>
<path d="M633.662 497.827C633.662 497.827 614.712 495.605 603.95 494.085C593.19 492.564 587.619 487.858 582.826 483.874C578.863 480.581 576.165 477.525 577.983 475.837C580.41 473.582 588.089 481.755 589.985 483.128C592.909 485.244 594.877 486.348 598.388 486.8C602.746 487.36 611.086 487.416 614.127 485.312C617.168 483.207 610.97 477.591 608.981 475.017C606.993 472.445 606.057 470.924 608.278 469.988C610.502 469.052 619.158 477.122 621.964 481.451C624.772 485.779 632.142 490.808 635.885 491.393C637.122 493.853 633.662 497.827 633.662 497.827Z" fill="#FABE7C"/>
<path d="M740.419 378.391L727.897 310.901L687.187 316.899L701.363 394.871C711.193 401.429 731.649 385.394 740.419 378.391Z" fill="#ED9F5E"/>
<path d="M732.891 356.363C732.891 356.363 691.594 399.943 675.194 390.955C672.721 389.602 659.287 365.919 658.37 364.18C649.969 348.262 641.622 320.089 641.219 307.497C640.133 273.642 663.251 244.099 688.701 246.651C714.147 249.208 773.381 267.979 732.891 356.363Z" fill="#FABE7C"/>
<path d="M656.979 329.122L657.078 329.027L655.097 326.248C650.444 335.018 644.114 341.995 638.504 349.152C656.182 359.578 667.712 343.512 660.261 327.42C658.855 327.793 657.636 328.619 656.979 329.122C656.351 329.61 656.265 329.798 656.979 329.122Z" fill="#FABE7C"/>
<path d="M678.665 247.488L678.665 247.812C678.665 247.644 678.665 247.545 678.665 247.488Z" fill="#855634"/>
<path d="M712.883 322.101C718.658 332.74 726.8 355.825 736.324 356.978C743.994 343.568 754.253 323.654 756.734 308.231C759.153 293.213 756.558 264.18 732.506 253.322C708.861 240.317 700.623 239.197 690.498 241.793C682.314 243.891 666.456 249.411 658.481 257.071C654.803 260.601 651.307 264.902 648.739 269.246C647.252 271.76 646.362 278.064 645.135 281.871L645.925 280.427C654.129 283.462 667.246 267.517 673.989 273.436C681.808 280.284 683.592 307.834 690.404 315.595C696.221 322.234 704.706 313.953 712.883 322.101Z" fill="#935025"/>
<path d="M718.093 320.812C718.163 329.133 712.578 339.779 707.11 339.823C701.64 339.866 697.147 333.163 697.077 324.842C697.007 316.523 699.551 305.194 706.819 305.543C712.28 305.807 718.023 312.491 718.093 320.812Z" fill="#FABE7C"/>
<path d="M642.154 287.197C648.851 289.801 663.485 288.384 668.426 287.602C671.133 287.172 673.813 286.648 676.473 286.049C673.368 283.731 670.207 281.086 668.093 278.64C665.468 275.604 656.681 266.884 654.664 265.813C654.579 267.395 655.355 269.415 655.775 271.276C651.968 266.81 645.692 264.266 641.98 259.587C641.687 262.379 641.905 265.059 642.442 267.938C639.512 266.117 637.461 262.951 635.65 260.367C634.241 264.46 636.099 270.162 637.252 274.622C637.952 277.339 639.649 282.867 642.154 287.197Z" fill="#CA8D51"/>
<path d="M689.552 357.681C689.073 358.708 688.336 359.584 687.568 360.371C686.8 361.168 685.961 361.869 685.117 362.556C683.392 363.888 681.632 365.122 679.61 366.106C680.875 364.242 682.518 362.768 684.21 361.41C685.926 360.054 687.706 358.918 689.552 357.681Z" fill="#935025"/>
<path d="M656.064 336.461C656.75 337.476 658.126 337.741 659.141 337.056C660.155 336.372 660.423 334.995 659.738 333.981C659.053 332.966 657.677 332.699 656.663 333.382C655.648 334.068 655.379 335.446 656.064 336.461Z" fill="#5B3118"/>
<path d="M646.488 315.006C664.474 310.024 676.57 313.6 665.381 317.451C654.194 321.304 634.628 318.29 646.488 315.006Z" fill="#935025"/>
<path d="M713.385 272.808C694.643 237.459 622.593 240.526 622.593 240.526C612.181 277.695 628.042 288.318 637.609 292.471C660.584 302.446 692.257 275.615 709.156 290.859C717.663 298.535 731.155 352.862 731.155 352.862C731.155 352.862 752.03 299.144 742.304 277.769C735.165 262.079 713.385 272.808 713.385 272.808Z" fill="#935025"/>
<path d="M734.74 247.341C730.481 247.601 729.311 249.493 729.311 249.493C732.846 244.255 731.46 236.54 731.46 236.54C722.826 240.477 723.032 247.097 723.032 247.097C719.795 238.308 707.666 234.546 707.666 234.546C707.42 241.538 714.18 249.323 714.56 249.577L720.072 259.959L733.574 259.103L732.813 253.04C735.271 250.152 734.74 247.341 734.74 247.341Z" fill="#935025"/>
<path d="M650.828 235.389C650.619 240.42 654.463 245.909 654.463 245.909C654.463 245.909 724.368 303.526 713.382 272.8C702.395 242.074 650.828 235.389 650.828 235.389Z" fill="#935025"/>
<path d="M748.728 387.521C734.567 387.334 722.902 399.599 721.627 431.456C720.744 453.535 722.405 480.103 723.171 490.645C723.35 493.096 721.326 495.132 718.873 494.967C701.347 493.777 640.139 489.638 636.097 489.638C631.378 489.638 628.589 499.292 634.166 502.295C639.745 505.299 689.945 525.679 717.406 531.686C744.866 537.693 767.059 536.56 768.893 525.894C772.503 504.908 773.827 443.727 771.252 423.562C768.678 403.396 765.031 387.736 748.728 387.521Z" fill="#0467FF"/>
<circle cx="567.381" cy="385.115" r="6.18961" fill="url(#paint8_linear_13_518)"/>
<circle cx="598.329" cy="423.989" r="6.18961" fill="url(#paint9_linear_13_518)"/>
<circle cx="617.93" cy="423.989" r="3.09481" fill="url(#paint10_linear_13_518)"/>
<circle cx="612.189" cy="437.848" r="3.09481" transform="rotate(45 612.189 437.848)" fill="url(#paint11_linear_13_518)"/>
<circle cx="597.997" cy="443.589" r="3.09481" transform="rotate(90 597.997 443.589)" fill="url(#paint12_linear_13_518)"/>
<circle cx="584.137" cy="437.848" r="3.09481" transform="rotate(135 584.137 437.848)" fill="url(#paint13_linear_13_518)"/>
<circle cx="578.729" cy="423.989" r="3.09481" fill="url(#paint14_linear_13_518)"/>
<circle cx="584.47" cy="410.129" r="3.09481" transform="rotate(45 584.47 410.129)" fill="url(#paint15_linear_13_518)"/>
<circle cx="597.997" cy="404.388" r="3.09481" transform="rotate(90 597.997 404.388)" fill="url(#paint16_linear_13_518)"/>
<circle cx="611.857" cy="410.129" r="3.09481" transform="rotate(135 611.857 410.129)" fill="url(#paint17_linear_13_518)"/>
<defs>
<filter id="filter0_d_13_518" x="374.325" y="232.754" width="71.4741" height="71.4741" filterUnits="userSpaceOnUse" color-interpolation-filters="sRGB">
<feFlood flood-opacity="0" result="BackgroundImageFix"/>
<feColorMatrix in="SourceAlpha" type="matrix" values="0 0 0 0 0 0 0 0 0 0 0 0 0 0 0 0 0 0 127 0" result="hardAlpha"/>
<feMorphology radius="12" operator="erode" in="SourceAlpha" result="effect1_dropShadow_13_518"/>
<feOffset dy="18"/>
<feGaussianBlur stdDeviation="20"/>
<feColorMatrix type="matrix" values="0 0 0 0 0.243137 0 0 0 0 0.741176 0 0 0 0 1 0 0 0 0.45 0"/>
<feBlend mode="normal" in2="BackgroundImageFix" result="effect1_dropShadow_13_518"/>
<feBlend mode="normal" in="SourceGraphic" in2="effect1_dropShadow_13_518" result="shape"/>
</filter>
<filter id="filter1_d_13_518" x="760" y="397" width="71.474" height="71.4741" filterUnits="userSpaceOnUse" color-interpolation-filters="sRGB">
<feFlood flood-opacity="0" result="BackgroundImageFix"/>
<feColorMatrix in="SourceAlpha" type="matrix" values="0 0 0 0 0 0 0 0 0 0 0 0 0 0 0 0 0 0 127 0" result="hardAlpha"/>
<feMorphology radius="12" operator="erode" in="SourceAlpha" result="effect1_dropShadow_13_518"/>
<feOffset dy="18"/>
<feGaussianBlur stdDeviation="20"/>
<feColorMatrix type="matrix" values="0 0 0 0 0.243137 0 0 0 0 0.741176 0 0 0 0 1 0 0 0 0.45 0"/>
<feBlend mode="normal" in2="BackgroundImageFix" result="effect1_dropShadow_13_518"/>
<feBlend mode="normal" in="SourceGraphic" in2="effect1_dropShadow_13_518" result="shape"/>
</filter>
<filter id="filter2_d_13_518" x="628.099" y="588.657" width="71.4741" height="71.4741" filterUnits="userSpaceOnUse" color-interpolation-filters="sRGB">
<feFlood flood-opacity="0" result="BackgroundImageFix"/>
<feColorMatrix in="SourceAlpha" type="matrix" values="0 0 0 0 0 0 0 0 0 0 0 0 0 0 0 0 0 0 127 0" result="hardAlpha"/>
<feMorphology radius="12" operator="erode" in="SourceAlpha" result="effect1_dropShadow_13_518"/>
<feOffset dy="18"/>
<feGaussianBlur stdDeviation="20"/>
<feColorMatrix type="matrix" values="0 0 0 0 0.243137 0 0 0 0 0.741176 0 0 0 0 1 0 0 0 0.45 0"/>
<feBlend mode="normal" in2="BackgroundImageFix" result="effect1_dropShadow_13_518"/>
<feBlend mode="normal" in="SourceGraphic" in2="effect1_dropShadow_13_518" result="shape"/>
</filter>
<filter id="filter3_d_13_518" x="334.092" y="576.277" width="87.9797" height="87.9797" filterUnits="userSpaceOnUse" color-interpolation-filters="sRGB">
<feFlood flood-opacity="0" result="BackgroundImageFix"/>
<feColorMatrix in="SourceAlpha" type="matrix" values="0 0 0 0 0 0 0 0 0 0 0 0 0 0 0 0 0 0 127 0" result="hardAlpha"/>
<feMorphology radius="12" operator="erode" in="SourceAlpha" result="effect1_dropShadow_13_518"/>
<feOffset dy="18"/>
<feGaussianBlur stdDeviation="20"/>
<feColorMatrix type="matrix" values="0 0 0 0 0.243137 0 0 0 0 0.741176 0 0 0 0 1 0 0 0 0.45 0"/>
<feBlend mode="normal" in2="BackgroundImageFix" result="effect1_dropShadow_13_518"/>
<feBlend mode="normal" in="SourceGraphic" in2="effect1_dropShadow_13_518" result="shape"/>
</filter>
<filter id="filter4_d_13_518" x="618.815" y="528.824" width="74.5688" height="74.5688" filterUnits="userSpaceOnUse" color-interpolation-filters="sRGB">
<feFlood flood-opacity="0" result="BackgroundImageFix"/>
<feColorMatrix in="SourceAlpha" type="matrix" values="0 0 0 0 0 0 0 0 0 0 0 0 0 0 0 0 0 0 127 0" result="hardAlpha"/>
<feMorphology radius="12" operator="erode" in="SourceAlpha" result="effect1_dropShadow_13_518"/>
<feOffset dy="18"/>
<feGaussianBlur stdDeviation="20"/>
<feColorMatrix type="matrix" values="0 0 0 0 0.243137 0 0 0 0 0.741176 0 0 0 0 1 0 0 0 0.45 0"/>
<feBlend mode="normal" in2="BackgroundImageFix" result="effect1_dropShadow_13_518"/>
<feBlend mode="normal" in="SourceGraphic" in2="effect1_dropShadow_13_518" result="shape"/>
</filter>
<filter id="filter5_d_13_518" x="121.582" y="527.792" width="74.5688" height="74.5688" filterUnits="userSpaceOnUse" color-interpolation-filters="sRGB">
<feFlood flood-opacity="0" result="BackgroundImageFix"/>
<feColorMatrix in="SourceAlpha" type="matrix" values="0 0 0 0 0 0 0 0 0 0 0 0 0 0 0 0 0 0 127 0" result="hardAlpha"/>
<feMorphology radius="12" operator="erode" in="SourceAlpha" result="effect1_dropShadow_13_518"/>
<feOffset dy="18"/>
<feGaussianBlur stdDeviation="20"/>
<feColorMatrix type="matrix" values="0 0 0 0 0.243137 0 0 0 0 0.741176 0 0 0 0 1 0 0 0 0.45 0"/>
<feBlend mode="normal" in2="BackgroundImageFix" result="effect1_dropShadow_13_518"/>
<feBlend mode="normal" in="SourceGraphic" in2="effect1_dropShadow_13_518" result="shape"/>
</filter>
<filter id="filter6_d_13_518" x="520.812" y="612.383" width="65.2844" height="65.2844" filterUnits="userSpaceOnUse" color-interpolation-filters="sRGB">
<feFlood flood-opacity="0" result="BackgroundImageFix"/>
<feColorMatrix in="SourceAlpha" type="matrix" values="0 0 0 0 0 0 0 0 0 0 0 0 0 0 0 0 0 0 127 0" result="hardAlpha"/>
<feMorphology radius="12" operator="erode" in="SourceAlpha" result="effect1_dropShadow_13_518"/>
<feOffset dy="18"/>
<feGaussianBlur stdDeviation="20"/>
<feColorMatrix type="matrix" values="0 0 0 0 0.243137 0 0 0 0 0.741176 0 0 0 0 1 0 0 0 0.45 0"/>
<feBlend mode="normal" in2="BackgroundImageFix" result="effect1_dropShadow_13_518"/>
<feBlend mode="normal" in="SourceGraphic" in2="effect1_dropShadow_13_518" result="shape"/>
</filter>
<linearGradient id="paint0_linear_13_518" x1="402.325" y1="242.754" x2="419.1" y2="244.323" gradientUnits="userSpaceOnUse">
<stop stop-color="#FCC822"/>
<stop offset="1" stop-color="#FFD85E"/>
</linearGradient>
<linearGradient id="paint1_linear_13_518" x1="788" y1="407" x2="804.775" y2="408.569" gradientUnits="userSpaceOnUse">
<stop stop-color="#FCC822"/>
<stop offset="1" stop-color="#FDD453"/>
</linearGradient>
<linearGradient id="paint2_linear_13_518" x1="656.099" y1="598.657" x2="672.874" y2="600.225" gradientUnits="userSpaceOnUse">
<stop stop-color="#FCC822"/>
<stop offset="1" stop-color="#FED553"/>
</linearGradient>
<linearGradient id="paint3_linear_13_518" x1="362.092" y1="586.277" x2="396.76" y2="589.52" gradientUnits="userSpaceOnUse">
<stop stop-color="#FCC822"/>
<stop offset="1" stop-color="#FDD659"/>
</linearGradient>
<linearGradient id="paint4_linear_13_518" x1="646.815" y1="538.824" x2="666.944" y2="540.706" gradientUnits="userSpaceOnUse">
<stop stop-color="#FCC822"/>
<stop offset="1" stop-color="#FDD451"/>
</linearGradient>
<linearGradient id="paint5_linear_13_518" x1="149.582" y1="537.792" x2="169.712" y2="539.675" gradientUnits="userSpaceOnUse">
<stop stop-color="#FCC822"/>
<stop offset="1" stop-color="#FDD65C"/>
</linearGradient>
<linearGradient id="paint6_linear_13_518" x1="548.812" y1="622.383" x2="558.877" y2="623.325" gradientUnits="userSpaceOnUse">
<stop stop-color="#FCC822"/>
<stop offset="1" stop-color="#FCD350"/>
</linearGradient>
<linearGradient id="paint7_linear_13_518" x1="146.917" y1="257.446" x2="146.917" y2="381.347" gradientUnits="userSpaceOnUse">
<stop stop-color="#FCC822"/>
<stop offset="1" stop-color="#FCC822"/>
</linearGradient>
<linearGradient id="paint8_linear_13_518" x1="567.381" y1="378.925" x2="567.381" y2="391.305" gradientUnits="userSpaceOnUse">
<stop stop-color="#FCC822"/>
<stop offset="1" stop-color="#FCC822"/>
</linearGradient>
<linearGradient id="paint9_linear_13_518" x1="598.329" y1="417.799" x2="598.329" y2="430.179" gradientUnits="userSpaceOnUse">
<stop stop-color="#FCC822"/>
<stop offset="1" stop-color="#FBD867"/>
</linearGradient>
<linearGradient id="paint10_linear_13_518" x1="617.93" y1="420.894" x2="617.93" y2="427.083" gradientUnits="userSpaceOnUse">
<stop stop-color="#FCC822"/>
<stop offset="1" stop-color="#FBD867"/>
</linearGradient>
<linearGradient id="paint11_linear_13_518" x1="612.189" y1="434.753" x2="612.189" y2="440.943" gradientUnits="userSpaceOnUse">
<stop stop-color="#FCC822"/>
<stop offset="1" stop-color="#FBD867"/>
</linearGradient>
<linearGradient id="paint12_linear_13_518" x1="597.997" y1="440.494" x2="597.997" y2="446.684" gradientUnits="userSpaceOnUse">
<stop stop-color="#FCC822"/>
<stop offset="1" stop-color="#FBD867"/>
</linearGradient>
<linearGradient id="paint13_linear_13_518" x1="584.137" y1="434.754" x2="584.137" y2="440.943" gradientUnits="userSpaceOnUse">
<stop stop-color="#FCC822"/>
<stop offset="1" stop-color="#FBD867"/>
</linearGradient>
<linearGradient id="paint14_linear_13_518" x1="578.729" y1="420.894" x2="578.729" y2="427.083" gradientUnits="userSpaceOnUse">
<stop stop-color="#FCC822"/>
<stop offset="1" stop-color="#FBD867"/>
</linearGradient>
<linearGradient id="paint15_linear_13_518" x1="584.47" y1="407.034" x2="584.47" y2="413.224" gradientUnits="userSpaceOnUse">
<stop stop-color="#FCC822"/>
<stop offset="1" stop-color="#FBD867"/>
</linearGradient>
<linearGradient id="paint16_linear_13_518" x1="597.997" y1="401.293" x2="597.997" y2="407.483" gradientUnits="userSpaceOnUse">
<stop stop-color="#FCC822"/>
<stop offset="1" stop-color="#FBD867"/>
</linearGradient>
<linearGradient id="paint17_linear_13_518" x1="611.857" y1="407.034" x2="611.857" y2="413.224" gradientUnits="userSpaceOnUse">
<stop stop-color="#FCC822"/>
<stop offset="1" stop-color="#FBD867"/>
</linearGradient>
</defs>
</svg>
