<svg width="952" height="880" viewBox="0 0 952 880" fill="none" xmlns="http://www.w3.org/2000/svg">
<g filter="url(#filter0_d_0_1)">
<rect x="449.912" y="251.969" width="17.3043" height="16.0614" rx="8.0307" fill="url(#paint0_linear_0_1)"/>
</g>
<g filter="url(#filter1_d_0_1)">
<rect x="918.282" y="458.624" width="17.3043" height="16.0614" rx="8.0307" fill="url(#paint1_linear_0_1)"/>
</g>
<g filter="url(#filter2_d_0_1)">
<rect x="733.702" y="621.381" width="17.3043" height="16.0614" rx="8.0307" fill="url(#paint2_linear_0_1)"/>
</g>
<g filter="url(#filter3_d_0_1)">
<rect x="412" y="629" width="35.7622" height="33.1935" rx="16.5968" fill="url(#paint3_linear_0_1)"/>
</g>
<g filter="url(#filter4_d_0_1)">
<rect x="723.32" y="559.277" width="20.7652" height="19.2737" rx="9.63683" fill="url(#paint4_linear_0_1)"/>
</g>
<g filter="url(#filter5_d_0_1)">
<rect x="167.275" y="558.205" width="20.7652" height="19.2737" rx="9.63683" fill="url(#paint5_linear_0_1)"/>
</g>
<g filter="url(#filter6_d_0_1)">
<rect x="613.726" y="646.009" width="10.3826" height="9.63683" rx="4.81842" fill="url(#paint6_linear_0_1)"/>
</g>
<path d="M519.666 97.6728C519.666 97.6728 417.859 100.73 392.092 144.294C366.997 186.721 414.686 266.442 414.686 266.442C414.686 266.442 484.35 372.85 465.146 441.233C432.361 557.975 223.109 437.364 148.39 536.08C65.178 646.016 193.757 877.53 193.757 877.53" stroke="#FFC819" stroke-width="0.580569"/>
<path d="M853.053 819.089C853.053 819.089 922.712 750.11 907.744 702.393C893.167 655.923 798.711 630.851 798.711 630.851C798.711 630.851 668.388 601.331 629.871 540.373C564.116 436.306 803.964 384.255 781.594 265.413C756.682 133.063 489.39 53.7466 489.39 53.7466" stroke="#FCC822" stroke-width="0.870854"/>
<ellipse cx="634.491" cy="399.733" rx="6.92172" ry="6.42456" fill="url(#paint7_linear_0_1)"/>
<path d="M659.68 519.238L664.673 520.132C669.979 521.078 673.51 526.147 672.562 531.452L671.646 536.575C670.699 541.879 665.63 545.411 660.327 544.464L655.331 543.57C650.027 542.623 646.495 537.553 647.442 532.249L648.358 527.127C649.306 521.821 654.375 518.289 659.68 519.238ZM692.904 381.393C705.881 383.711 714.867 390.121 719.865 400.615C723.845 408.906 724.951 418.001 723.182 427.904C720.221 444.467 709.905 458.878 692.234 471.136C686.071 475.41 682.203 480.975 680.624 487.829C680.041 490.103 679.497 492.649 678.994 495.467C678.045 500.771 672.977 504.303 667.673 503.354L662.678 502.462C657.373 501.513 653.841 496.445 654.789 491.141V491.139C657.491 476.027 663.21 465.468 671.95 459.451C681.394 452.945 688.357 445.777 692.842 437.943C695.419 433.382 697.189 428.412 698.151 423.033C699.141 417.483 698.682 412.909 696.771 409.306C694.692 405.148 690.99 402.944 685.662 402.696C680.688 402.425 676.583 405.172 673.352 410.937C673.188 411.215 673.029 411.501 672.873 411.792C670.583 416.053 665.494 417.971 660.953 416.309L656.5 414.679C650.989 412.662 648.476 406.254 651.169 401.041C653.843 395.858 657.372 391.462 661.753 387.85C666.501 383.943 672.561 381.588 679.929 380.791C683.796 380.339 688.122 380.537 692.904 381.393Z" fill="#AEDBED"/>
<path d="M470.028 539.678L474.176 539.876C478.581 540.086 481.983 543.827 481.772 548.232L481.57 552.486C481.36 556.891 477.618 560.292 473.214 560.084L469.066 559.886C464.661 559.675 461.26 555.935 461.47 551.53L461.672 547.274C461.882 542.869 465.624 539.468 470.028 539.678ZM482.452 424.296C493.227 424.809 501.196 429.062 506.36 437.054C510.464 443.36 512.321 450.626 511.93 458.85C511.276 472.606 504.423 485.39 491.374 497.204C486.824 501.323 484.272 506.247 483.714 511.976C483.479 513.883 483.307 516.007 483.195 518.347C482.985 522.752 479.245 526.153 474.839 525.945L470.692 525.747C466.285 525.536 462.886 521.796 463.094 517.391C463.692 504.84 467.221 495.665 473.679 489.86C480.657 483.583 485.552 477.031 488.366 470.199C489.976 466.224 490.888 462.006 491.1 457.54C491.321 452.931 490.464 449.266 488.532 446.544C486.407 443.389 483.17 441.991 478.82 442.351C474.754 442.655 471.713 445.317 469.698 450.338C469.596 450.582 469.496 450.83 469.399 451.083C467.991 454.783 464.064 456.875 460.203 456.005L456.417 455.153C451.73 454.097 449.016 449.163 450.65 444.647C452.274 440.157 454.673 436.218 457.847 432.824C461.29 429.153 465.96 426.602 471.856 425.178C474.948 424.401 478.479 424.107 482.452 424.296Z" fill="#AEDBED"/>
<path d="M543.185 373.654L546.348 373.1C549.708 372.509 552.908 374.755 553.497 378.114L554.066 381.358C554.655 384.715 552.411 387.917 549.052 388.506L545.889 389.061C542.531 389.651 539.329 387.406 538.74 384.046L538.171 380.804C537.582 377.445 539.827 374.243 543.185 373.654ZM532.975 284.504C541.191 283.062 547.925 284.918 553.176 290.071C557.342 294.132 559.978 299.298 561.078 305.568C562.919 316.056 559.918 326.863 552.08 337.991C549.346 341.869 548.256 346.017 548.808 350.433C548.955 351.913 549.186 353.544 549.498 355.327C550.088 358.687 547.843 361.887 544.485 362.476L541.322 363.031C537.963 363.621 534.762 361.375 534.172 358.016C532.493 348.448 533.598 340.928 537.485 335.454C541.683 329.534 544.265 323.759 545.227 318.129C545.767 314.858 545.739 311.519 545.141 308.114C544.525 304.6 543.257 301.981 541.338 300.256C539.2 298.235 536.52 297.729 533.299 298.74C530.285 299.659 528.441 302.183 527.774 306.314C527.737 306.515 527.705 306.719 527.675 306.927C527.241 309.956 524.632 312.203 521.572 312.202L518.572 312.2C514.858 312.199 511.971 308.937 512.438 305.252C512.902 301.591 514.043 298.212 515.861 295.115C517.836 291.758 520.926 289.043 525.132 286.967C527.331 285.858 529.946 285.035 532.975 284.504Z" fill="#AEDBED"/>
<path d="M311.773 468.935L313.873 469.477C316.102 470.054 317.44 472.33 316.863 474.559L316.306 476.711C315.729 478.941 313.454 480.28 311.224 479.703L309.125 479.16C306.895 478.581 305.557 476.308 306.134 474.078L306.692 471.925C307.269 469.696 309.544 468.356 311.773 468.935ZM330.433 411.286C335.886 412.7 339.506 415.723 341.294 420.358C342.718 424.02 342.892 427.932 341.814 432.095C340.012 439.054 335.146 444.858 327.215 449.504C324.451 451.122 322.62 453.366 321.723 456.236C321.401 457.186 321.085 458.251 320.779 459.436C320.202 461.666 317.927 463.005 315.698 462.427L313.599 461.884C311.37 461.307 310.03 459.032 310.607 456.803C312.252 450.451 315.034 446.139 318.956 443.862C323.191 441.396 326.393 438.571 328.56 435.38C329.806 433.521 330.723 431.461 331.308 429.199C331.911 426.869 331.865 424.905 331.168 423.306C330.42 421.466 328.913 420.406 326.652 420.128C324.541 419.848 322.703 420.883 321.137 423.236C321.059 423.351 320.981 423.467 320.905 423.585C319.79 425.325 317.559 425.975 315.678 425.12L313.836 424.28C311.553 423.239 310.691 420.428 312.01 418.294C313.318 416.174 314.964 414.416 316.948 413.02C319.1 411.51 321.759 410.706 324.925 410.606C326.588 410.539 328.424 410.767 330.433 411.286Z" fill="#AEDBED"/>
<path d="M394.247 478.133L400.728 476.469C407.61 474.701 414.622 478.849 416.39 485.731L418.095 492.377C419.864 499.259 415.716 506.272 408.834 508.039L402.353 509.703C395.471 511.47 388.459 507.324 386.691 500.441L384.985 493.794C383.217 486.912 387.365 479.9 394.247 478.133ZM358.628 294.581C375.463 290.258 389.753 293.025 401.495 302.879C410.807 310.645 417.114 320.95 420.414 333.799C425.932 355.29 421.447 378.224 406.96 402.607C401.908 411.107 400.314 419.9 402.175 428.986C402.719 432.033 403.461 435.385 404.401 439.042C406.167 445.924 402.021 452.936 395.139 454.703L388.657 456.367C381.776 458.135 374.763 453.989 372.996 447.107C367.961 427.498 369.041 411.696 376.231 399.693C383.996 386.718 388.425 374.307 389.515 362.454C390.11 355.571 389.51 348.64 387.719 341.661C385.87 334.463 382.814 329.226 378.549 325.951C373.78 322.101 368.13 321.484 361.602 324.104C355.489 326.501 352.068 332.042 351.349 340.73C351.307 341.152 351.271 341.584 351.243 342.019C350.828 348.383 345.775 353.47 339.416 353.962L333.182 354.444C325.467 355.043 318.945 348.734 319.318 341.002C319.69 333.323 321.514 326.116 324.792 319.387C328.349 312.099 334.33 305.957 342.732 300.965C347.125 298.305 352.422 296.175 358.628 294.581Z" fill="#AEDBED"/>
<path d="M818.376 482.413L822.956 481.236C827.819 479.987 832.774 482.918 834.023 487.781L835.229 492.479C836.478 497.342 833.549 502.297 828.684 503.546L824.104 504.722C819.241 505.971 814.286 503.04 813.037 498.177L811.831 493.48C810.582 488.617 813.512 483.662 818.376 482.413ZM793.205 352.701C805.102 349.646 815.201 351.602 823.497 358.566C830.079 364.052 834.536 371.336 836.868 380.414C840.767 395.6 837.598 411.81 827.361 429.039C823.79 435.046 822.663 441.259 823.979 447.682C824.363 449.835 824.888 452.204 825.551 454.787C826.8 459.65 823.869 464.605 819.006 465.854L814.426 467.03C809.563 468.279 804.608 465.348 803.359 460.485C799.801 446.63 800.563 435.464 805.645 426.981C811.132 417.813 814.261 409.041 815.033 400.664C815.452 395.801 815.03 390.903 813.763 385.97C812.457 380.884 810.296 377.183 807.284 374.869C803.912 372.149 799.921 371.712 795.308 373.563C790.986 375.257 788.57 379.174 788.061 385.311C788.03 385.612 788.006 385.915 787.986 386.223C787.694 390.721 784.122 394.316 779.628 394.664L775.223 395.006C769.77 395.428 765.162 390.97 765.426 385.506C765.688 380.078 766.977 374.986 769.294 370.229C771.809 365.079 776.035 360.74 781.973 357.213C785.075 355.331 788.82 353.826 793.205 352.701Z" fill="#AEDBED"/>
<path d="M797.429 267.214L799.96 266.564C802.649 265.874 805.388 267.492 806.078 270.181L806.745 272.777C807.436 275.466 805.815 278.205 803.128 278.893L800.595 279.545C797.907 280.235 795.167 278.615 794.479 275.927L793.811 273.33C793.121 270.643 794.741 267.904 797.429 267.214ZM783.516 195.516C790.092 193.827 795.675 194.908 800.259 198.758C803.898 201.79 806.361 205.816 807.65 210.835C809.805 219.228 808.055 228.188 802.395 237.711C800.423 241.033 799.8 244.466 800.525 248.015C800.738 249.207 801.028 250.515 801.395 251.943C802.085 254.631 800.466 257.371 797.777 258.061L795.246 258.711C792.558 259.401 789.818 257.781 789.128 255.094C787.162 247.434 787.583 241.262 790.392 236.574C793.426 231.506 795.156 226.658 795.581 222.027C795.813 219.34 795.579 216.632 794.879 213.906C794.158 211.094 792.964 209.049 791.297 207.769C789.435 206.267 787.228 206.024 784.677 207.047C782.289 207.984 780.954 210.149 780.673 213.542C780.656 213.708 780.642 213.876 780.631 214.046C780.469 216.532 778.496 218.519 776.012 218.711L773.576 218.9C770.563 219.133 768.016 216.669 768.162 213.649C768.308 210.649 769.02 207.834 770.3 205.206C771.689 202.359 774.025 199.958 777.307 198.01C779.024 196.971 781.092 196.138 783.516 195.516Z" fill="#AEDBED"/>
<path d="M457.783 311.921C457.783 311.921 472.431 240.507 439.054 244.026L407.147 310.46C407.147 310.46 428.535 319.227 457.783 311.921Z" fill="#361710"/>
<path d="M383.417 311.921C383.417 311.921 375.298 254.01 400.489 239.315L434.053 310.46C434.053 310.46 412.667 319.227 383.417 311.921Z" fill="#361710"/>
<path d="M331.709 295.906H335.594C339.719 295.906 343.063 299.251 343.063 303.374V307.358C343.063 311.485 339.719 314.828 335.594 314.828H331.709C327.584 314.828 324.241 311.485 324.241 307.358V303.374C324.241 299.251 327.584 295.906 331.709 295.906ZM338.184 187.553C348.274 187.553 355.909 191.171 361.088 198.408C365.205 204.118 367.263 210.823 367.263 218.525C367.263 231.406 361.429 243.656 349.764 255.274C345.695 259.324 343.53 264.038 343.264 269.417C343.13 271.208 343.063 273.198 343.063 275.39C343.063 279.517 339.719 282.86 335.594 282.86H331.709C327.584 282.86 324.241 279.517 324.241 275.39C324.241 263.639 327.129 254.91 332.905 249.199C339.145 243.024 343.426 236.684 345.752 230.176C347.078 226.393 347.743 222.409 347.743 218.226C347.743 213.911 346.781 210.526 344.855 208.069C342.73 205.216 339.643 204.051 335.594 204.582C331.809 205.047 329.086 207.671 327.428 212.45C327.342 212.682 327.26 212.919 327.181 213.16C326.03 216.68 322.454 218.809 318.807 218.17L315.232 217.541C310.807 216.761 308.051 212.273 309.378 207.98C310.695 203.715 312.762 199.927 315.576 196.614C318.63 193.03 322.879 190.441 328.325 188.849C331.178 187.986 334.463 187.553 338.184 187.553Z" fill="#FCC822"/>
<path d="M424.639 589.279C424.639 589.279 422.79 596.422 419.465 595.345C413.249 593.338 412.886 589.279 412.886 589.279C412.886 589.279 408.966 601.099 409.713 606.728C410.459 612.356 409.713 625.011 409.713 625.011H415.386C415.386 625.011 420.692 625.657 422.891 628.856C425.092 632.054 437.145 631.106 440.965 629.053C445.86 626.426 433.014 613.054 428.469 605.602C423.925 598.15 424.639 589.279 424.639 589.279Z" fill="#1C0906"/>
<path d="M414.022 484.094C417.942 474.411 431.926 474.52 435.375 484.378C435.997 486.155 436.447 488.015 436.742 489.898C438.192 499.143 436.736 513.96 432.918 532.885C427.767 558.419 424.983 609.355 416.038 610.104C407.092 610.854 412.35 568.022 412.163 542.696C411.977 517.367 407.986 499.003 413.65 485.016L414.022 484.094Z" fill="#CF9166"/>
<path d="M419.168 557.156C417.944 523.745 420.168 498.961 414.838 481.345L414.488 480.186C410.799 467.994 399.521 470.165 397.271 483.66C396.866 486.092 396.605 488.608 396.468 491.134C395.801 503.529 397.779 522.848 401.887 547.238C407.431 580.146 408.778 610.415 416.038 610.104C423.296 609.793 420.392 590.566 419.168 557.156Z" fill="#EDAC7C"/>
<path d="M409.033 595.154C409.033 595.154 410.615 607.772 415.018 607.009C419.349 606.258 420.784 595.154 420.784 595.154C420.784 595.154 424.705 606.972 423.959 612.601C423.538 615.773 423.591 621.176 423.718 625.289C423.811 628.354 421.353 630.885 418.285 630.885C418.285 630.885 412.979 631.53 410.779 634.729C408.579 637.929 396.526 636.98 392.706 634.928C387.81 632.3 400.657 618.929 405.202 611.477C409.746 604.023 409.033 595.154 409.033 595.154Z" fill="#361710"/>
<path d="M446.56 403.703L418.158 398.561V398.363L417.613 398.463L417.068 398.363V398.561L388.667 403.703C388.667 403.703 378.623 418.662 380.589 436.259C382.554 453.854 391.612 549.019 391.612 549.019H440.504C440.504 549.019 452.672 453.854 454.638 436.259C456.602 418.662 446.56 403.703 446.56 403.703Z" fill="#195172"/>
<path d="M449.944 410.041C448.152 406.078 446.56 403.702 446.56 403.702L418.158 398.559V398.361L417.613 398.461L417.069 398.361V398.559L388.667 403.702C388.667 403.702 387.074 406.078 385.284 410.041H449.944Z" fill="#0D435E"/>
<path d="M423.721 549.018L424.053 453.949L432.195 549.018" fill="#0D435E"/>
<path d="M380.354 430.582C383.11 430.5 387.753 429.953 394.473 427.827C406.255 424.102 406.355 408.549 406.355 408.549L406.039 400.559L388.667 403.704C388.667 403.704 380.714 415.562 380.354 430.582Z" fill="#0D435E"/>
<path d="M454.873 430.584C454.515 415.562 446.56 403.703 446.56 403.703L427.992 400.341L427.518 408.548C427.518 408.548 427.618 424.101 439.4 427.827C447.386 430.353 452.439 430.652 454.873 430.584Z" fill="#0D435E"/>
<path d="M390.253 323.028L410.43 314.828L426.265 314.999L451.006 325.318C451.006 325.318 438.11 369.648 438.959 381.087C439.808 392.526 446.559 405.471 446.559 405.471H390.253C390.253 405.471 400.334 385.074 398.122 373.042C395.907 361.008 390.253 323.028 390.253 323.028Z" fill="#5C93BC"/>
<path d="M437.591 253.722C430.744 240.912 394.55 236.375 387.895 276.649C383.042 305.998 416.062 312.919 432.799 307.545C461.274 298.402 444.439 266.532 437.591 253.722Z" fill="#3E150D"/>
<path d="M443.483 280.969C443.483 280.969 448.6 274.397 453.31 278.714C458.021 283.034 451.289 296.341 442.268 293.21L443.483 280.969Z" fill="#EDAC7C"/>
<path d="M443.023 285.607L442.396 291.909C450.199 293.31 454.651 282.445 451.063 280.939C448.16 279.721 444.558 283.533 443.023 285.607Z" fill="#F7A588"/>
<path d="M452.32 283.19C452.32 283.19 452.305 283.141 452.281 283.051C452.257 282.961 452.214 282.833 452.164 282.673C452.046 282.361 451.845 281.909 451.463 281.584C451.368 281.503 451.256 281.437 451.142 281.382C451.082 281.357 451.024 281.329 450.957 281.308L450.914 281.293L450.911 281.291C450.946 281.303 450.919 281.294 450.925 281.297L450.919 281.294L450.901 281.291L450.871 281.284L450.748 281.25C450.659 281.223 450.592 281.214 450.525 281.204C450.461 281.192 450.389 281.181 450.306 281.177C450.232 281.172 450.154 281.168 450.079 281.169C449.997 281.169 449.919 281.166 449.839 281.177C449.198 281.221 448.52 281.471 447.875 281.818C447.546 281.986 447.234 282.19 446.924 282.395C446.62 282.603 446.319 282.819 446.035 283.036C445.469 283.474 444.953 283.916 444.506 284.297C443.616 285.083 443.024 285.608 443.024 285.608C443.024 285.608 443.1 285.423 443.266 285.113C443.436 284.807 443.69 284.374 444.045 283.889C444.225 283.648 444.422 283.385 444.651 283.125C444.878 282.863 445.131 282.594 445.408 282.331C445.962 281.806 446.612 281.288 447.362 280.888C447.736 280.691 448.133 280.52 448.548 280.404C448.965 280.288 449.402 280.225 449.829 280.241C449.934 280.243 450.038 280.252 450.146 280.267C450.25 280.273 450.351 280.296 450.452 280.319C450.551 280.338 450.653 280.368 450.755 280.402C450.861 280.435 450.959 280.468 451.027 280.505L451.145 280.56L451.219 280.594L451.286 280.63C451.374 280.676 451.454 280.731 451.531 280.789C451.682 280.908 451.814 281.039 451.917 281.177C452.132 281.448 452.238 281.739 452.299 281.99C452.363 282.24 452.37 282.463 452.373 282.639C452.373 282.816 452.352 282.957 452.342 283.049C452.327 283.143 452.32 283.19 452.32 283.19Z" fill="#CF9166"/>
<path d="M396.04 280.455C396.04 280.455 391.066 273.778 386.266 277.992C381.461 282.207 387.906 295.658 396.994 292.722L396.04 280.455Z" fill="#EDAC7C"/>
<path d="M396.401 285.106L396.892 291.42C389.062 292.655 384.845 281.696 388.466 280.267C391.391 279.113 394.913 282.999 396.401 285.106Z" fill="#F7A588"/>
<path d="M387.161 282.489C387.161 282.489 387.174 282.443 387.201 282.352C387.228 282.262 387.272 282.135 387.329 281.975C387.449 281.664 387.659 281.218 388.052 280.901C388.147 280.822 388.257 280.76 388.376 280.706C388.437 280.684 388.495 280.656 388.557 280.638L388.608 280.623L388.611 280.621C388.574 280.635 388.603 280.623 388.596 280.626H388.603L388.618 280.62L388.648 280.612L388.774 280.583C388.861 280.557 388.931 280.55 388.997 280.541C389.063 280.529 389.136 280.523 389.216 280.52C389.292 280.516 389.366 280.513 389.445 280.517C389.524 280.517 389.603 280.519 389.683 280.531C390.321 280.587 390.996 280.85 391.634 281.213C391.957 281.39 392.268 281.597 392.572 281.81C392.871 282.025 393.167 282.247 393.447 282.471C394.005 282.922 394.51 283.374 394.949 283.762C395.822 284.57 396.402 285.106 396.402 285.106C396.402 285.106 396.329 284.919 396.168 284.607C396.009 284.297 395.762 283.857 395.416 283.365C395.243 283.121 395.05 282.853 394.827 282.589C394.604 282.323 394.361 282.047 394.089 281.777C393.547 281.243 392.909 280.711 392.168 280.293C391.799 280.09 391.402 279.911 390.989 279.786C390.575 279.659 390.141 279.588 389.716 279.594C389.607 279.592 389.503 279.603 389.398 279.613C389.292 279.618 389.191 279.635 389.087 279.659C388.99 279.674 388.889 279.701 388.783 279.735C388.679 279.766 388.581 279.796 388.51 279.833L388.392 279.882L388.318 279.916L388.249 279.951C388.16 279.994 388.077 280.049 387.998 280.104C387.848 280.221 387.714 280.348 387.606 280.483C387.385 280.752 387.274 281.041 387.207 281.288C387.137 281.537 387.125 281.759 387.119 281.937C387.115 282.116 387.131 282.256 387.142 282.348C387.153 282.44 387.161 282.489 387.161 282.489Z" fill="#CF9166"/>
<path d="M425.208 301.178L412.364 301.036C412.364 301.036 411.653 321.144 411.605 321.144C411.605 321.144 412.505 325.165 418.202 325.315C423.901 325.464 425.35 321.289 425.35 321.289C425.304 321.179 425.208 301.178 425.208 301.178Z" fill="#EDAC7C"/>
<path d="M425.351 308.579L411.961 308.131C411.961 308.131 411.885 315.531 411.837 315.531C411.837 315.531 412.557 320.233 418.256 320.383C423.954 320.532 425.294 316.212 425.294 316.212C425.249 316.1 425.351 308.579 425.351 308.579Z" fill="#CF9166"/>
<path d="M425.167 304.875L412.323 304.736C412.323 304.736 412.133 307.302 411.962 309.487C411.935 309.802 415.62 310.401 416.02 310.468C419.158 311.001 422.259 310.63 425.327 309.884C425.251 307.647 425.167 304.875 425.167 304.875Z" fill="#CF9166"/>
<path d="M450.034 275.735C449.861 291.751 435.824 304.586 418.683 304.402C401.541 304.217 387.785 291.082 387.956 275.066C388.129 259.047 402.165 246.212 419.309 246.396C436.449 246.582 450.208 259.716 450.034 275.735Z" fill="#3E150D"/>
<path d="M446.737 275.306C446.523 266.38 442.777 257.914 433.997 254.356C429.533 252.544 424.615 252.023 419.817 252.048C415.076 252.075 410.025 252.327 405.551 253.996C397.538 256.989 395.363 252.104 394.463 260.246C394.374 261.043 393.315 264.453 392.229 274.719C392.035 276.548 391.984 278.365 392.032 280.212C392.142 284.361 392.756 288.528 394.067 292.48C395.656 297.276 398.347 301.741 402.297 305.02C404.541 306.885 407.132 308.321 409.883 309.326C414.426 310.981 418.764 311.56 423.542 310.733C426.781 310.174 429.944 309.151 432.799 307.546C437.537 304.884 441.109 300.706 443.363 295.855C445.258 291.773 446.27 287.32 446.673 282.863C446.894 280.423 446.968 277.941 446.755 275.501C446.749 275.435 446.739 275.371 446.737 275.306Z" fill="#EDAC7C"/>
<path d="M427.777 283.748C427.65 286.282 429.436 288.428 431.764 288.542C434.092 288.657 436.081 286.692 436.208 284.157C436.335 281.623 434.552 279.477 432.222 279.364C429.894 279.249 427.903 281.214 427.777 283.748Z" fill="#CF9166"/>
<path d="M427.83 282.676C427.702 285.211 429.488 287.356 431.815 287.472C434.145 287.586 436.134 285.622 436.26 283.088C436.389 280.554 434.605 278.405 432.275 278.292C429.947 278.18 427.956 280.142 427.83 282.676Z" fill="black"/>
<path d="M429.339 281.504C429.293 282.422 430.014 283.204 430.946 283.248C431.882 283.294 432.676 282.588 432.721 281.669C432.768 280.752 432.047 279.972 431.115 279.926C430.181 279.879 429.385 280.586 429.339 281.504Z" fill="white"/>
<path d="M402.634 282.758C402.508 285.292 404.293 287.438 406.62 287.553C408.95 287.667 410.938 285.701 411.065 283.169C411.193 280.635 409.41 278.487 407.079 278.374C404.754 278.263 402.761 280.223 402.634 282.758Z" fill="#CF9166"/>
<path d="M402.689 281.686C402.561 284.221 404.348 286.366 406.674 286.482C409.005 286.595 410.993 284.633 411.119 282.096C411.249 279.564 409.463 277.415 407.134 277.303C404.808 277.19 402.815 279.153 402.689 281.686Z" fill="black"/>
<path d="M404.198 280.514C404.153 281.431 404.87 282.214 405.806 282.258C406.739 282.304 407.535 281.598 407.581 280.677C407.626 279.76 406.907 278.979 405.971 278.934C405.038 278.888 404.244 279.595 404.198 280.514Z" fill="white"/>
<path d="M417.491 279.964C417.491 279.964 418.109 285.543 415.481 285.079C410.396 284.19 410.382 295.089 418.062 291.031C420.96 289.501 420.005 280.04 420.005 280.04L417.491 279.964Z" fill="#F48470"/>
<path d="M412.102 295.939C412.102 295.939 422.335 297.641 427.198 291.778C427.198 291.778 431.286 302.732 420.299 304.138C413.359 305.022 412.102 295.939 412.102 295.939Z" fill="#B43128"/>
<path d="M415.581 302.847C416.744 303.806 418.281 304.394 420.298 304.138C422.791 303.817 424.504 303.006 425.671 301.947C426.006 301.628 426.303 301.286 426.574 300.93C426.581 300.923 426.587 300.914 426.592 300.906C426.598 300.9 426.598 300.897 426.601 300.894C427.438 299.709 427.798 298.352 427.905 297.052C421.731 295.437 417.305 300.264 415.581 302.847Z" fill="#F05736"/>
<path d="M412.102 295.939C412.102 295.939 412.116 296.018 412.138 296.156C413.134 296.362 414.978 298.527 417.46 298.441C419.031 298.389 420.57 297.954 421.982 297.29C422.86 296.878 423.764 296.481 424.522 295.872C425.104 295.408 425.522 294.033 425.767 293.182C420.579 297.348 412.104 295.939 412.102 295.939Z" fill="white"/>
<path d="M412.786 296.583C413.23 298.632 414.941 304.269 420.229 303.593C423.159 303.221 425.217 302.103 426.347 300.277C427.907 297.754 427.35 294.446 426.947 292.872C422.551 297.232 415.197 296.846 412.786 296.583ZM419.281 304.742C412.828 304.674 411.564 296.107 411.554 296.013C411.528 295.844 411.588 295.67 411.716 295.549C411.844 295.429 412.019 295.372 412.196 295.402C412.294 295.417 422.171 296.98 426.767 291.433C426.893 291.283 427.092 291.205 427.29 291.239C427.488 291.272 427.651 291.406 427.721 291.592C427.802 291.808 429.684 296.975 427.302 300.84C425.989 302.965 423.657 304.26 420.372 304.678C419.99 304.727 419.63 304.747 419.281 304.742Z" fill="#F05B4E"/>
<path d="M408.121 295.342C408.095 297.681 406.147 299.556 403.768 299.529C401.388 299.504 399.478 297.587 399.501 295.248C399.528 292.909 401.478 291.035 403.857 291.059C406.236 291.087 408.146 293.002 408.121 295.342Z" fill="#F49B77"/>
<path d="M439.054 292.952C439.029 295.291 437.079 297.168 434.697 297.141C432.32 297.116 430.411 295.2 430.435 292.86C430.461 290.522 432.41 288.647 434.789 288.672C437.168 288.699 439.079 290.616 439.054 292.952Z" fill="#F49B77"/>
<path d="M399.733 271.184C399.733 271.184 399.828 271.009 400.052 270.736C400.165 270.606 400.301 270.435 400.48 270.271C400.652 270.097 400.859 269.916 401.098 269.728C401.336 269.542 401.606 269.355 401.901 269.174C402.2 269 402.52 268.812 402.871 268.665C403.212 268.497 403.583 268.368 403.964 268.241C404.345 268.11 404.746 268.037 405.14 267.935C405.54 267.872 405.945 267.811 406.34 267.773C406.739 267.75 407.133 267.74 407.508 267.741C407.889 267.762 408.253 267.795 408.595 267.828C408.941 267.868 409.26 267.947 409.554 268.005C409.846 268.072 410.112 268.128 410.344 268.217C410.574 268.296 410.775 268.373 410.937 268.436C411.26 268.561 411.441 268.65 411.441 268.65C411.441 268.65 411.236 268.678 410.891 268.702C410.718 268.716 410.51 268.733 410.274 268.739C410.042 268.741 409.774 268.772 409.486 268.796C409.2 268.821 408.892 268.821 408.57 268.857C408.245 268.892 407.909 268.925 407.56 268.95C407.213 268.997 406.859 269.05 406.494 269.09C406.137 269.151 405.775 269.212 405.411 269.276C405.23 269.315 405.051 269.356 404.873 269.394C404.691 269.432 404.513 269.462 404.34 269.514C404.165 269.562 403.989 269.605 403.817 269.646C403.641 269.685 403.482 269.749 403.313 269.794C402.977 269.884 402.661 269.996 402.355 270.096C402.2 270.142 402.059 270.207 401.916 270.255C401.774 270.307 401.632 270.351 401.503 270.409C401.24 270.512 400.996 270.609 400.785 270.702C400.565 270.79 400.382 270.881 400.221 270.949C400.074 271.025 399.943 271.076 399.864 271.12C399.778 271.162 399.733 271.184 399.733 271.184Z" fill="black"/>
<path d="M436.4 277.307C436.4 277.307 436.283 277.145 436.029 276.904C435.896 276.789 435.743 276.636 435.547 276.493C435.352 276.346 435.12 276.193 434.864 276.037C434.604 275.882 434.313 275.732 433.994 275.591C433.673 275.455 433.334 275.311 432.967 275.211C432.607 275.088 432.222 275.006 431.829 274.929C431.437 274.847 431.029 274.826 430.625 274.779C430.217 274.765 429.813 274.756 429.413 274.77C429.014 274.798 428.623 274.838 428.247 274.887C427.875 274.957 427.518 275.036 427.18 275.112C426.847 275.195 426.541 275.315 426.257 275.412C425.974 275.515 425.716 275.605 425.5 275.721C425.28 275.83 425.093 275.933 424.941 276.016C424.632 276.182 424.466 276.291 424.466 276.291C424.466 276.291 424.673 276.295 425.018 276.276C425.189 276.266 425.399 276.255 425.635 276.233C425.867 276.205 426.134 276.2 426.424 276.185C426.709 276.175 427.014 276.136 427.343 276.129C427.667 276.123 428.004 276.114 428.352 276.095C428.703 276.098 429.065 276.104 429.429 276.095C429.792 276.108 430.158 276.126 430.528 276.141C430.711 276.157 430.894 276.172 431.077 276.187C431.258 276.203 431.441 276.209 431.621 276.24C431.799 276.267 431.978 276.285 432.155 276.304C432.333 276.321 432.504 276.362 432.674 276.386C433.02 276.432 433.346 276.504 433.664 276.563C433.823 276.587 433.969 276.634 434.118 276.663C434.266 276.697 434.414 276.724 434.548 276.762C434.821 276.834 435.077 276.896 435.3 276.962C435.529 277.023 435.721 277.088 435.884 277.136C436.044 277.192 436.179 277.225 436.265 277.259C436.353 277.289 436.4 277.307 436.4 277.307Z" fill="black"/>
<path d="M446.37 288.624C446.37 288.624 447.046 287.376 448.334 284.997C453.153 276.085 455.187 265.628 452.587 255.837C451.19 250.572 448.311 248.011 445.967 246.77C443.565 245.5 432.644 238.603 426.089 236.611C414.256 233.017 401.654 236.759 392.8 242.906C383.946 249.054 372.396 269.195 381.973 269.402C391.55 269.61 406.107 256.137 401.781 259.609C395.588 264.582 401.65 265.109 415.508 265.583C429.365 266.056 437.581 261.235 437.581 261.235C437.581 261.235 437.059 265.476 439.101 271.759C441.141 278.043 446.804 285.201 446.804 285.201" fill="#361710"/>
<path d="M402.984 317.855L406.354 403.498C406.354 403.498 406.255 419.052 394.472 422.779C382.69 426.505 377.27 425.387 377.27 425.387C377.27 425.387 390.076 370.183 387.508 357.821C384.94 345.458 381.005 325.707 381.005 325.707L402.984 317.855Z" fill="#122738"/>
<path d="M432.483 317.626L427.519 403.498C427.519 403.498 427.618 419.052 439.401 422.779C451.183 426.505 456.603 425.387 456.603 425.387C456.603 425.387 443.795 370.183 446.363 357.821C448.933 345.458 452.868 325.708 452.868 325.708L432.483 317.626Z" fill="#122738"/>
<path d="M466.094 342.15C466.094 342.15 489.867 370.298 489.91 379.153C489.952 388.01 477.481 385.215 477.481 385.215L454.95 353.055L466.094 342.15Z" fill="#EDAC7C"/>
<path d="M466.094 342.149L454.95 353.054L463.907 365.839C463.907 365.839 469.219 357.917 478.843 358.513C472.623 349.881 466.094 342.149 466.094 342.149Z" fill="#CF9166"/>
<path d="M379.636 344.824C379.636 344.824 347.876 363.499 339.141 362.043C330.404 360.589 335.267 348.769 335.267 348.769L370.773 331.998L379.636 344.824Z" fill="#EDAC7C"/>
<path d="M353.316 358.31C365.36 353.216 379.636 344.825 379.636 344.825L370.773 331.999L353.307 340.248C353.307 340.248 359.783 354.331 353.316 358.31" fill="#CF9166"/>
<path d="M484.539 385.381C484.603 385.345 484.666 385.307 484.73 385.268C487.23 383.756 489.071 381.312 490.329 378.671C493.008 373.053 494.423 366.544 496.461 360.649C498.046 356.057 499.485 351.105 501.428 346.485C501.13 346.349 500.851 346.175 500.602 345.942C498.132 343.629 496.917 342.06 494.074 340.222C493.259 347.317 483.301 361.247 479.145 372.317C478.324 374.504 477.609 376.769 477.528 379.104C477.38 383.495 479.766 388.141 484.539 385.381Z" fill="#EEC9B1"/>
<path d="M479.26 387.207C480.499 387.95 482.56 388.496 485.394 386.862L485.614 386.731C488.159 385.192 490.321 382.658 491.872 379.407C493.685 375.604 494.931 371.429 496.137 367.39C496.75 365.332 497.385 363.203 498.075 361.208C498.56 359.807 499.029 358.372 499.504 356.925C500.573 353.668 501.677 350.303 503.003 347.146L503.647 345.611L502.13 344.926C501.983 344.859 501.865 344.784 501.77 344.695C501.116 344.082 500.551 343.522 500.02 342.997C498.519 341.51 497.226 340.225 495.001 338.787L492.69 337.292L492.375 340.027C491.957 343.678 488.678 349.707 485.207 356.091C482.356 361.33 479.412 366.746 477.545 371.717C476.742 373.853 475.91 376.394 475.82 379.046C475.697 382.676 477.047 385.877 479.26 387.207Z" fill="#EDAC7C"/>
<path d="M499.681 341.751C499.684 341.74 501.571 336.042 502.298 335.82C503.028 335.598 504.322 336.116 504.322 336.116L502.139 344.288C502.139 344.288 505.181 337.447 506.37 336.859C507.555 336.271 508.881 336.892 508.881 336.892L505.253 346.301C505.253 346.301 507.399 339.505 508.667 338.436C509.937 337.37 511.441 337.823 511.441 337.823L508.377 347.97L508.102 346.686C508.102 346.686 510.196 343.092 511.478 342.818C512.758 342.542 513.991 342.851 513.991 342.851C513.991 342.851 511.687 346.508 510.694 348.857C509.701 351.207 507.898 351.641 507.898 351.641C503.858 350.404 500.412 347.387 497.09 344.808C494.522 342.812 492.69 337.291 492.69 337.291C492.69 337.291 496.174 334.067 499.681 341.751Z" fill="#EDAC7C"/>
<path d="M336.129 358.512C336.082 358.456 336.034 358.399 335.988 358.341C334.155 356.066 333.258 353.142 332.975 350.229C332.376 344.035 333.265 337.433 333.362 331.196C333.438 326.339 333.775 321.192 333.527 316.186C333.851 316.161 334.175 316.093 334.488 315.959C337.599 314.626 339.276 313.568 342.576 312.811C340.921 319.757 345.526 336.247 345.657 348.071C345.683 350.409 345.581 352.781 344.86 355.004C343.502 359.183 339.673 362.737 336.129 358.512Z" fill="#EEC9B1"/>
<path d="M340.468 362.03C339.049 362.307 336.927 362.118 334.82 359.612L334.657 359.413C332.79 357.099 331.621 353.98 331.273 350.393C330.867 346.201 331.122 341.852 331.367 337.645C331.492 335.5 331.621 333.283 331.654 331.17C331.676 329.689 331.724 328.179 331.772 326.658C331.879 323.232 331.989 319.691 331.821 316.27L331.737 314.608L333.397 314.482C333.559 314.471 333.694 314.44 333.815 314.388C334.64 314.037 335.36 313.702 336.04 313.388C337.956 312.502 339.612 311.738 342.193 311.144L344.876 310.527L344.239 313.207C343.386 316.781 344.412 323.568 345.496 330.752C346.387 336.648 347.307 342.745 347.367 348.056C347.392 350.337 347.307 353.008 346.486 355.531C345.364 358.986 343.002 361.536 340.468 362.03Z" fill="#EDAC7C"/>
<path d="M336.783 312.335C336.783 312.323 336.956 306.322 336.347 305.866C335.736 305.409 334.343 305.452 334.343 305.452L333.607 313.88C333.607 313.88 333.082 306.412 332.166 305.454C331.251 304.496 329.792 304.627 329.792 304.627L329.993 314.71C329.993 314.71 330.295 307.589 329.467 306.153C328.638 304.716 327.071 304.629 327.071 304.629L326.488 315.212L327.184 314.1C327.184 314.1 326.442 310.009 325.331 309.311C324.22 308.616 322.958 308.485 322.958 308.485C322.958 308.485 323.874 312.71 324.006 315.257C324.138 317.804 325.683 318.826 325.683 318.826C329.905 319.043 334.173 317.382 338.176 316.09C341.271 315.092 344.876 310.526 344.876 310.526C344.876 310.526 342.702 306.308 336.783 312.335Z" fill="#EDAC7C"/>
<path d="M452.867 325.706C452.867 325.706 472.225 341.18 476.841 350.238L456.491 364.927L441.089 342.151L452.867 325.706Z" fill="#122738"/>
<path d="M381.008 325.706C381.008 325.706 364.36 333.864 354.414 339.143L363.384 361.1L391.811 350.619L381.008 325.706Z" fill="#122738"/>
<path d="M419.807 627.947C417.052 628.522 412.805 626.915 409.617 631.849C406.545 636.605 399.322 636.531 398.801 636.52C403.627 637.139 409.331 636.835 410.778 634.731C412.979 631.531 418.285 630.887 418.285 630.887C421.353 630.887 423.811 628.354 423.718 625.29C423.712 625.111 423.707 624.916 423.703 624.732C422.711 626.091 421.294 627.638 419.807 627.947Z" fill="#1C0906"/>
<path d="M711.289 246.07L713.579 246.882C716.012 247.743 717.285 250.413 716.424 252.846L715.591 255.196C714.73 257.627 712.059 258.902 709.626 258.039L707.336 257.229C704.905 256.366 703.63 253.696 704.493 251.263L705.324 248.914C706.185 246.482 708.856 245.209 711.289 246.07ZM737.738 183.528C743.69 185.636 747.436 189.365 748.978 194.714C750.212 198.942 750.026 203.326 748.417 207.868C745.727 215.462 739.728 221.467 730.422 225.881C727.177 227.42 724.915 229.746 723.635 232.863C723.183 233.892 722.726 235.052 722.268 236.344C721.407 238.777 718.736 240.05 716.305 239.189L714.015 238.377C711.582 237.516 710.307 234.845 711.17 232.412C713.624 225.482 717.151 220.939 721.751 218.777C726.719 216.439 730.568 213.596 733.298 210.244C734.871 208.29 736.097 206.079 736.97 203.613C737.871 201.069 738.011 198.871 737.389 197.021C736.73 194.893 735.154 193.562 732.656 193.029C730.327 192.513 728.173 193.492 726.196 195.963C726.097 196.082 725.999 196.204 725.903 196.331C724.488 198.164 721.935 198.674 719.919 197.534L717.942 196.417C715.494 195.034 714.807 191.811 716.486 189.557C718.153 187.317 720.164 185.515 722.515 184.15C725.064 182.673 728.111 182.034 731.655 182.232C733.518 182.321 735.546 182.752 737.738 183.528Z" fill="#FCC822"/>
<path d="M551.32 252.981L554.668 253.635C558.225 254.331 560.543 257.779 559.847 261.334L559.175 264.769C558.479 268.324 555.032 270.643 551.476 269.947L548.128 269.293C544.572 268.597 542.253 265.15 542.949 261.594L543.622 258.159C544.318 254.603 547.763 252.283 551.32 252.981ZM575.181 160.663C583.88 162.366 589.852 166.774 593.096 173.885C595.68 179.503 596.324 185.631 595.025 192.27C592.852 203.376 585.756 212.949 573.74 220.998C569.549 223.804 566.886 227.501 565.75 232.091C565.332 233.616 564.938 235.321 564.569 237.21C563.873 240.766 560.426 243.085 556.869 242.388L553.521 241.734C549.964 241.038 547.646 237.591 548.342 234.035C550.325 223.903 554.287 216.865 560.231 212.917C566.651 208.647 571.412 203.903 574.515 198.685C576.298 195.647 577.542 192.325 578.247 188.719C578.976 184.999 578.717 181.918 577.471 179.475C576.121 176.657 573.657 175.133 570.076 174.908C566.734 174.67 563.944 176.471 561.708 180.312C561.596 180.498 561.485 180.688 561.376 180.883C559.789 183.722 556.347 184.955 553.312 183.787L550.336 182.642C546.652 181.225 545.033 176.89 546.902 173.413C548.757 169.959 551.178 167.041 554.164 164.662C557.4 162.086 561.499 160.571 566.463 160.116C569.069 159.854 571.975 160.036 575.181 160.663Z" fill="#FCC822"/>
<path d="M497.333 312.439L499.687 311.835C502.185 311.193 504.732 312.699 505.373 315.198L505.993 317.613C506.636 320.111 505.129 322.658 502.63 323.299L500.276 323.905C497.777 324.546 495.23 323.041 494.589 320.539L493.969 318.126C493.326 315.627 494.833 313.081 497.333 312.439ZM484.396 245.777C490.511 244.207 495.7 245.212 499.965 248.79C503.346 251.611 505.636 255.352 506.835 260.02C508.84 267.825 507.211 276.155 501.95 285.01C500.115 288.097 499.535 291.29 500.212 294.589C500.409 295.696 500.679 296.914 501.019 298.242C501.661 300.742 500.155 303.287 497.655 303.928L495.303 304.534C492.803 305.175 490.257 303.67 489.615 301.17C487.787 294.05 488.178 288.309 490.789 283.952C493.61 279.24 495.218 274.732 495.613 270.427C495.829 267.927 495.612 265.41 494.962 262.876C494.29 260.261 493.181 258.359 491.631 257.17C489.899 255.772 487.848 255.547 485.476 256.499C483.256 257.37 482.014 259.382 481.752 262.537C481.737 262.691 481.724 262.846 481.714 263.005C481.563 265.317 479.728 267.164 477.419 267.343L475.155 267.518C472.352 267.734 469.985 265.444 470.12 262.636C470.255 259.848 470.917 257.231 472.108 254.786C473.401 252.139 475.572 249.908 478.623 248.095C480.219 247.129 482.142 246.355 484.396 245.777Z" fill="#FCC822"/>
<path d="M857.668 312.757L860.022 312.153C862.521 311.51 865.068 313.017 865.709 315.515L866.329 317.93C866.972 320.43 865.465 322.976 862.967 323.618L860.611 324.222C858.113 324.865 855.565 323.358 854.925 320.858L854.304 318.445C853.662 315.947 855.168 313.399 857.668 312.757ZM844.732 246.096C850.847 244.526 856.035 245.531 860.3 249.109C863.682 251.93 865.972 255.671 867.171 260.338C869.175 268.144 867.547 276.474 862.286 285.329C860.451 288.416 859.871 291.607 860.547 294.909C860.745 296.015 861.014 297.233 861.355 298.559C861.997 301.059 860.491 303.607 857.992 304.248L855.638 304.853C853.139 305.494 850.593 303.989 849.95 301.489C848.123 294.369 848.514 288.629 851.125 284.27C853.946 279.559 855.554 275.051 855.949 270.745C856.165 268.245 855.948 265.729 855.298 263.195C854.626 260.579 853.516 258.678 851.967 257.489C850.234 256.091 848.184 255.866 845.813 256.818C843.593 257.688 842.35 259.7 842.088 262.856C842.073 263.009 842.06 263.165 842.051 263.324C841.899 265.635 840.064 267.483 837.755 267.662L835.491 267.837C832.689 268.053 830.321 265.761 830.456 262.955C830.591 260.165 831.253 257.548 832.444 255.103C833.736 252.456 835.908 250.227 838.959 248.414C840.555 247.448 842.479 246.675 844.732 246.096Z" fill="#FCC822"/>
<path d="M591.138 401.076L601.057 359.184L583.018 358.503L573.541 397.174C572.872 399.903 573.028 402.768 573.987 405.408L591.227 452.848L611.874 450.855L591.138 401.076Z" fill="#A7A6BB"/>
<path d="M582.981 395.483C584.821 391.785 586.607 388.479 588.338 385.564C590.734 381.289 593.763 377.662 597.396 374.652L601.059 359.185L583.019 358.504L573.541 397.174C573.074 399.081 573.034 401.05 573.364 402.966C577.393 402.086 581.002 399.464 582.981 395.483Z" fill="#727293"/>
<path d="M608.714 539.274L608.275 541.309L605.969 552.009L595.761 599.367L594.649 604.512L594.401 605.672L592.347 628.165L589.929 628.896C583.79 630.761 577.519 630.358 572.047 628.113C569.806 627.194 567.521 624.956 565.929 623.177C564.125 621.162 562.666 618.848 561.536 616.393C558.29 609.334 557.539 601.293 557.369 593.617C557.311 591.022 557.326 588.427 557.326 585.83V560.383V538.133V530.049C559.201 530.049 561.305 529.814 562.81 529.711C564.165 529.624 566.599 529.17 567.994 529.17C573.464 527.293 579.104 527.807 584.384 527.164C586.891 526.859 589.318 526.713 591.602 526.62C594.786 526.492 597.696 526.682 600.18 527.298C605.389 528.595 608.714 532.015 608.714 539.274Z" fill="#1C1B2D"/>
<path d="M649.664 609.882L595.357 627.254L592.347 628.166L589.929 628.896C583.791 630.761 577.519 630.359 572.047 628.114C570.621 627.312 569.273 626.377 568.026 625.328C568.017 625.322 568.012 625.313 568.003 625.304C563.796 621.422 560.855 616.172 559.842 610.257L591.269 600.727L595.76 599.368L642.451 586.091L649.664 609.882Z" fill="#1C1B2D"/>
<path d="M678.426 613.8C677.727 610.771 676.507 607.02 676.237 605.836C675.2 601.296 673.666 596.863 672.361 592.396C671.884 590.76 671.301 589.63 671.1 589.273C670.999 589.108 671.014 589.117 671.1 589.273C671.246 589.511 671.627 590.099 672.372 591.119C671.008 589.254 669.914 587.498 669.011 585.381C667.994 582.993 667.212 580.602 666.624 578.221L633.05 588.247L640.652 613.708L656.403 609.004C657.376 608.714 658.399 609.266 658.689 610.237L660.31 615.669C660.813 617.351 661.537 618.904 662.41 620.337C663.323 620.019 664.255 619.753 665.209 619.548C669.371 618.651 673.34 617.177 677.324 615.751C677.663 615.088 678.026 614.435 678.426 613.8Z" fill="#361710"/>
<path d="M647.487 592.172C650.437 591.29 653.544 592.969 654.425 595.92C655.306 598.87 653.628 601.977 650.678 602.859C647.728 603.739 644.621 602.061 643.739 599.111C642.859 596.161 644.536 593.054 647.487 592.172Z" fill="white"/>
<path d="M660.455 616.114C663.786 626.394 674.73 632.186 685.138 629.078C686.109 628.787 686.662 627.765 686.372 626.794L681.322 609.883L660.455 616.114Z" fill="white"/>
<path d="M678.338 629.885C680.573 630.007 682.869 629.756 685.139 629.078C686.11 628.788 686.663 627.765 686.373 626.794L671.963 578.545C671.675 577.572 670.651 577.019 669.679 577.31L663.214 579.239L678.338 629.885Z" fill="white"/>
<path d="M649.106 457.679L646.179 463.674L630.843 495.086L605.601 546.789L557.99 527.507L572.568 494.36L583.024 470.598L599.034 434.195L649.106 457.679Z" fill="#A7A6BB"/>
<path d="M640.56 467.977C640.028 467.977 639.023 467.248 637.82 466.23C635.201 480 621.717 490.791 607.716 490.791C595.797 490.791 586.045 483.999 580.962 474.294L570.45 499.179L581.587 516.137C583.947 519.639 588.567 520.814 592.317 518.861L628.723 499.906L644.06 468.496C642.934 468.154 641.752 467.977 640.56 467.977Z" fill="#727293"/>
<path d="M624.992 475.536C622.235 475.536 619.61 475.138 617.115 474.459L586.558 537.047L558.749 525.784L557.991 527.507L605.6 546.79L643.59 468.98C638.261 473.062 631.688 475.536 624.992 475.536Z" fill="#727293"/>
<path d="M658.317 415.856C658.317 415.856 665.706 411.553 668.542 417.468C671.379 423.384 659.875 433.487 652.477 427.056L658.317 415.856Z" fill="#EDAC7C"/>
<path d="M656.103 420.101L653.095 425.867C659.994 430.185 668.393 421.536 665.548 418.729C663.249 416.458 658.359 418.712 656.103 420.101Z" fill="#F7A588"/>
<path d="M665.885 421.353C665.885 421.353 665.89 421.301 665.902 421.205C665.914 421.11 665.921 420.971 665.934 420.8C665.943 420.458 665.924 419.951 665.683 419.496C665.624 419.382 665.543 419.277 665.456 419.181C665.408 419.133 665.363 419.086 665.308 419.038L665.271 419.007L665.27 419.004C665.297 419.031 665.276 419.011 665.28 419.016L665.276 419.011L665.259 419.001L665.236 418.981L665.13 418.904C665.056 418.845 664.995 418.809 664.937 418.775C664.879 418.738 664.813 418.702 664.737 418.666C664.669 418.632 664.596 418.596 664.522 418.571C664.446 418.538 664.373 418.506 664.291 418.485C663.665 418.284 662.923 418.263 662.175 418.346C661.797 418.381 661.423 418.455 661.049 418.532C660.679 418.614 660.31 418.705 659.958 418.803C659.248 419.004 658.588 419.227 658.017 419.419C656.869 419.829 656.103 420.101 656.103 420.101C656.103 420.101 656.248 419.956 656.524 419.724C656.804 419.496 657.211 419.182 657.735 418.855C657.998 418.694 658.286 418.519 658.603 418.358C658.92 418.196 659.263 418.037 659.628 417.891C660.358 417.604 661.176 417.358 662.041 417.264C662.475 417.221 662.917 417.207 663.359 417.256C663.799 417.304 664.239 417.414 664.639 417.591C664.74 417.633 664.836 417.682 664.932 417.735C665.029 417.783 665.117 417.844 665.204 417.903C665.292 417.96 665.377 418.025 665.462 418.098C665.548 418.17 665.63 418.238 665.68 418.299L665.772 418.399L665.829 418.458L665.879 418.519C665.946 418.596 666.001 418.678 666.053 418.763C666.152 418.934 666.226 419.108 666.272 419.279C666.373 419.621 666.363 419.939 666.324 420.202C666.29 420.464 666.213 420.68 666.147 420.848C666.08 421.016 666.007 421.142 665.961 421.227C665.912 421.31 665.885 421.353 665.885 421.353Z" fill="#CF9166"/>
<path d="M613.308 397.228C613.308 397.228 611.122 388.962 604.936 391.143C598.747 393.321 599.745 408.601 609.527 409.281L613.308 397.228Z" fill="#EDAC7C"/>
<path d="M611.874 401.796L609.926 407.999C601.995 406.181 602.166 394.128 606.164 394.151C609.392 394.169 611.26 399.22 611.874 401.796Z" fill="#F7A588"/>
<path d="M604.07 395.768C604.07 395.768 604.101 395.729 604.162 395.653C604.222 395.576 604.311 395.473 604.427 395.344C604.659 395.093 605.031 394.746 605.526 394.596C605.646 394.559 605.776 394.541 605.911 394.535C605.976 394.537 606.043 394.531 606.109 394.539L606.162 394.544H606.165C606.125 394.542 606.158 394.542 606.15 394.542L606.156 394.544L606.174 394.545L606.205 394.55L606.336 394.569C606.428 394.578 606.498 394.599 606.564 394.615C606.632 394.627 606.704 394.65 606.781 394.679C606.855 394.702 606.928 394.73 607.001 394.763C607.075 394.794 607.15 394.824 607.223 394.867C607.809 395.164 608.35 395.676 608.821 396.263C609.061 396.554 609.276 396.871 609.486 397.191C609.69 397.511 609.886 397.835 610.066 398.155C610.424 398.799 610.735 399.422 611.004 399.96C611.526 401.063 611.874 401.797 611.874 401.797C611.874 401.797 611.876 401.588 611.843 401.231C611.81 400.876 611.742 400.361 611.601 399.761C611.529 399.46 611.447 399.133 611.336 398.796C611.226 398.456 611.099 398.101 610.943 397.74C610.631 397.023 610.227 396.272 609.681 395.591C609.407 395.255 609.098 394.932 608.751 394.655C608.406 394.377 608.02 394.144 607.611 393.988C607.51 393.943 607.406 393.913 607.301 393.884C607.199 393.848 607.096 393.826 606.988 393.809C606.889 393.787 606.782 393.774 606.669 393.765C606.558 393.754 606.452 393.747 606.37 393.754L606.24 393.756L606.156 393.759L606.079 393.766C605.976 393.774 605.875 393.794 605.779 393.817C605.591 393.87 605.416 393.94 605.26 394.026C604.949 394.199 604.732 394.432 604.574 394.642C604.41 394.853 604.315 395.058 604.242 395.227C604.17 395.395 604.132 395.534 604.106 395.627C604.082 395.719 604.07 395.768 604.07 395.768Z" fill="#CF9166"/>
<path d="M633.175 428.124L620.992 423.079C620.992 423.079 612.625 441.966 612.58 441.947C612.58 441.947 611.899 446.123 617.271 448.444C622.644 450.765 625.621 447.344 625.621 447.344C625.619 447.22 633.175 428.124 633.175 428.124Z" fill="#EDAC7C"/>
<path d="M629.26 438.264L616.25 433.745C616.25 433.745 613.346 440.393 613.3 440.374C613.3 440.374 612.799 443.711 618.169 446.035C623.542 448.355 626.343 445.482 626.343 445.482C626.342 445.359 629.26 438.264 629.26 438.264Z" fill="#CF9166"/>
<path d="M631.723 431.632L619.539 426.586C619.539 426.586 618.376 428.96 617.377 430.976C617.231 431.266 620.513 433.246 620.868 433.463C623.655 435.171 626.751 436.003 629.959 436.467C630.741 434.304 631.723 431.632 631.723 431.632Z" fill="#CF9166"/>
<path d="M663.631 396.742C652.94 396.742 643.984 391.285 638.582 383.158H609.132C608.589 384.93 608.096 386.86 607.666 389C604.428 405.125 608.655 426.105 624.916 432.836C641.179 439.568 660.27 428.569 666.558 413.377C668.851 407.836 669.214 401.959 667.982 396.397C666.544 396.622 665.09 396.742 663.631 396.742Z" fill="#3E150D"/>
<path d="M663.581 411.708C666.792 403.121 666.459 393.62 659.455 386.873C655.893 383.441 651.407 381.063 646.825 379.253C642.298 377.464 637.389 375.774 632.488 375.653C623.708 375.439 623.186 379.814 619.217 387.226C618.826 387.951 612.211 389.554 611.871 390.302C611.087 392.022 610.242 393.684 609.582 395.461C608.099 399.457 607.093 403.663 606.829 407.931C606.51 413.107 607.368 418.389 609.876 423.025C611.301 425.661 613.221 428.02 615.457 430.029C619.154 433.344 623.065 435.552 627.934 436.591C631.234 437.298 634.64 437.533 637.974 437.094C643.506 436.37 648.507 433.755 652.51 429.996C655.875 426.832 658.543 422.975 660.631 418.883C661.775 416.642 662.793 414.306 663.525 411.9C663.544 411.834 663.559 411.77 663.581 411.708Z" fill="#EDAC7C"/>
<path d="M641.841 409.774C640.753 412.14 641.632 414.869 643.806 415.867C645.981 416.866 648.627 415.755 649.718 413.389C650.809 411.022 649.928 408.296 647.754 407.297C645.578 406.297 642.931 407.407 641.841 409.774Z" fill="#CF9166"/>
<path d="M642.176 408.067C641.084 410.433 641.964 413.16 644.139 414.161C646.316 415.16 648.961 414.049 650.051 411.683C651.143 409.319 650.264 406.588 648.088 405.589C645.913 404.593 643.264 405.701 642.176 408.067Z" fill="black"/>
<path d="M644.061 407.527C643.666 408.384 644.055 409.404 644.927 409.803C645.8 410.204 646.826 409.837 647.221 408.977C647.615 408.121 647.227 407.102 646.356 406.701C645.484 406.301 644.457 406.669 644.061 407.527Z" fill="white"/>
<path d="M617.315 400.709C616.225 403.077 617.104 405.804 619.28 406.802C621.455 407.801 624.102 406.689 625.191 404.326C626.281 401.96 625.402 399.231 623.228 398.232C621.054 397.235 618.405 398.342 617.315 400.709Z" fill="#CF9166"/>
<path d="M617.777 399.706C616.685 402.073 617.567 404.8 619.741 405.8C621.917 406.799 624.562 405.69 625.652 403.322C626.744 400.958 625.863 398.228 623.689 397.23C621.515 396.232 618.865 397.341 617.777 399.706Z" fill="black"/>
<path d="M619.662 399.169C619.268 400.024 619.653 401.044 620.527 401.444C621.399 401.847 622.428 401.477 622.823 400.619C623.216 399.761 622.831 398.742 621.956 398.341C621.085 397.942 620.057 398.311 619.662 399.169Z" fill="white"/>
<path d="M632.845 401.303C632.845 401.303 631.422 410.578 628.817 409.74C623.766 408.125 622.233 419.21 630.61 416.153C633.773 415 635.392 401.729 635.392 401.729L632.845 401.303Z" fill="#F48470"/>
<path d="M616.658 395.711C616.658 395.711 616.816 395.58 617.131 395.408C617.29 395.325 617.486 395.215 617.718 395.127C617.949 395.026 618.215 394.935 618.515 394.847C618.813 394.759 619.141 394.685 619.491 394.626C619.843 394.572 620.22 394.517 620.611 394.51C620.999 394.481 621.402 394.501 621.814 394.526C622.227 394.545 622.638 394.63 623.053 394.685C623.457 394.777 623.866 394.874 624.259 394.988C624.645 395.119 625.024 395.259 625.383 395.403C625.737 395.568 626.071 395.739 626.385 395.903C626.7 396.071 626.973 396.27 627.23 396.437C627.481 396.612 627.716 396.769 627.902 396.943C628.091 397.105 628.251 397.256 628.384 397.377C628.644 397.619 628.782 397.774 628.782 397.774C628.782 397.774 628.576 397.723 628.238 397.613C628.069 397.56 627.863 397.496 627.634 397.414C627.413 397.326 627.148 397.253 626.864 397.164C626.581 397.081 626.29 396.962 625.967 396.873C625.645 396.783 625.311 396.685 624.969 396.577C624.62 396.487 624.263 396.404 623.902 396.3C623.537 396.223 623.169 396.142 622.797 396.064C622.609 396.032 622.423 396.001 622.239 395.97C622.052 395.939 621.87 395.897 621.684 395.881C621.5 395.861 621.317 395.835 621.137 395.808C620.956 395.778 620.779 395.777 620.599 395.754C620.245 395.713 619.901 395.699 619.571 395.677C619.406 395.661 619.249 395.67 619.094 395.661C618.936 395.656 618.786 395.646 618.64 395.65C618.35 395.647 618.08 395.646 617.843 395.653C617.599 395.655 617.391 395.67 617.213 395.674C617.043 395.689 616.899 395.687 616.807 395.701C616.709 395.708 616.658 395.711 616.658 395.711Z" fill="black"/>
<path d="M654.245 403.299C654.245 403.299 654.154 403.115 653.939 402.825C653.826 402.686 653.696 402.505 653.524 402.326C653.353 402.142 653.144 401.947 652.912 401.742C652.679 401.541 652.41 401.339 652.112 401.14C651.811 400.946 651.494 400.741 651.141 400.575C650.798 400.387 650.422 400.237 650.038 400.091C649.656 399.937 649.247 399.846 648.847 399.725C648.438 399.641 648.029 399.56 647.621 399.504C647.214 399.462 646.809 399.434 646.423 399.418C646.035 399.424 645.66 399.438 645.305 399.459C644.952 399.483 644.622 399.55 644.317 399.598C644.014 399.653 643.737 399.7 643.498 399.779C643.257 399.85 643.049 399.922 642.881 399.978C642.539 400.093 642.351 400.173 642.351 400.173C642.351 400.173 642.559 400.215 642.912 400.253C643.089 400.276 643.301 400.301 643.544 400.32C643.785 400.332 644.054 400.374 644.35 400.411C644.641 400.451 644.957 400.465 645.288 400.515C645.618 400.566 645.96 400.616 646.317 400.658C646.671 400.722 647.035 400.793 647.406 400.847C647.77 400.924 648.137 401.006 648.509 401.088C648.692 401.135 648.874 401.183 649.056 401.23C649.236 401.279 649.421 401.315 649.598 401.379C649.773 401.437 649.95 401.489 650.126 401.537C650.304 401.586 650.469 401.657 650.637 401.712C650.978 401.819 651.296 401.949 651.607 402.066C651.763 402.117 651.903 402.191 652.048 402.248C652.194 402.306 652.337 402.361 652.466 402.423C652.73 402.541 652.978 402.649 653.192 402.756C653.412 402.857 653.597 402.957 653.753 403.034C653.904 403.119 654.035 403.178 654.116 403.226C654.2 403.272 654.245 403.299 654.245 403.299Z" fill="black"/>
<path d="M663.908 412.159C663.908 412.159 665.682 409.063 667.405 404.816C665.593 409.112 663.908 412.159 663.908 412.159Z" fill="#CF9166"/>
<path d="M666.282 381.799C664.532 381.973 662.711 381.932 660.961 381.97C656.759 382.062 652.553 381.938 648.349 382.016C645.848 382.062 643.351 382.172 640.857 382.367C640.644 382.383 634.857 382.975 635.037 382.901C630.724 383.489 626.428 384.24 622.13 384.899C620.465 385.155 618.827 385.295 617.208 385.369C622.071 386.398 628.37 386.099 632.763 385.671C632.526 385.744 632.317 385.8 632.061 385.888C627.522 387.43 631.273 392.48 639.236 395.875C650.257 400.573 660.244 398.711 660.244 398.711C660.244 398.711 658.463 401.944 658.076 407.64C657.813 411.539 658.778 416.313 659.412 418.937C659.706 420.145 659.928 420.899 659.928 420.899L658.478 423.504C658.478 423.504 661.682 418.088 667.397 411.039C679.306 396.351 678.052 387.827 675.753 383.683C672.525 383.515 669.317 382.905 666.282 381.799Z" fill="#361710"/>
<path d="M665.507 400.485C665.507 400.485 641.811 401.507 602.254 385.776C583.326 378.25 614.289 377.715 614.289 377.715L650.915 376.876L665.507 400.485Z" fill="#2D2C44"/>
<path d="M670.349 407.393C670.349 407.393 668.963 404.471 665.508 400.486C661.533 395.896 654.82 389.896 644.341 385.329C624.769 376.799 614.288 377.717 614.288 377.717C614.288 377.717 615.882 366.221 631.033 360.501C636.919 358.277 642.982 357.681 648.777 358.625C658.504 360.209 667.483 366.122 673.637 375.949C683.407 391.551 670.349 407.393 670.349 407.393Z" fill="#2D2C44"/>
<path d="M665.508 400.486C661.534 395.895 654.82 389.896 644.342 385.329C624.769 376.798 614.289 377.715 614.289 377.715C614.289 377.715 615.882 366.221 631.033 360.499C636.918 358.276 642.983 357.681 648.778 358.625C653.79 360.801 658.53 364.19 662.691 368.776C673.831 381.06 667.349 396.692 665.508 400.486Z" fill="#A7A6BB"/>
<path d="M662.041 417.264C662.041 417.264 645.808 423.663 639.165 428.553C637.419 429.839 636.484 434.196 630.786 434.196C623.728 434.196 624.839 430.826 620.214 427.634C617.626 425.846 612.137 424.035 610.582 421.791C607.159 416.86 607.184 401 607.184 401C607.184 401 602.479 413.298 606.063 424.969C607.603 429.983 609.559 443.024 626.968 443.667C643.435 444.276 646.003 439.208 649.215 435.897C652.427 432.59 662.041 417.264 662.041 417.264Z" fill="#361710"/>
<path d="M550.475 406.009L557.031 409.27C563.995 412.732 566.833 421.186 563.371 428.151L560.026 434.875C556.563 441.839 548.11 444.678 541.146 441.215L534.589 437.952C527.625 434.49 524.788 426.037 528.25 419.073L531.594 412.349C535.058 405.385 543.511 402.547 550.475 406.009Z" fill="#FCC822"/>
<path d="M566.606 449.347L564.33 444.337C563.762 442.658 563.552 440.881 563.709 439.117L564.722 427.848C564.856 426.377 564.399 424.911 563.454 423.776L554.378 412.872C553.799 412.176 552.706 412.26 552.241 413.037C551.966 413.499 551.997 414.081 552.324 414.509L556.531 420.025L552.631 416.925C551.875 416.326 550.752 416.643 550.424 417.55C550.227 418.09 550.379 418.697 550.806 419.08L556.897 424.58L551.146 420.845C550.354 420.329 549.286 420.688 548.963 421.577C548.721 422.245 548.992 422.99 549.606 423.35L554.888 426.428L549.256 424.547C548.577 424.321 547.839 424.676 547.595 425.35C547.371 425.968 547.635 426.658 548.215 426.968L551.456 428.694C553.606 429.844 554.766 432.254 554.315 434.65L553.261 440.274C552.665 443.463 553.306 446.758 555.055 449.49L557.911 453.951L566.606 449.347Z" fill="#EDAC7C"/>
<path d="M637.924 457.905L598.964 478.766C596.379 480.152 593.163 479.315 591.577 476.848L568.801 441.737L551.848 450.974L584.654 504.627C587.017 508.13 591.634 509.303 595.383 507.352L649.231 479.316C654.565 476.54 657.051 470.267 655.071 464.589C652.62 457.569 644.479 454.395 637.924 457.905Z" fill="#A7A6BB"/>
<path d="M614.928 527.343C614.928 548.567 597.723 565.777 576.492 565.777L539.329 562.46L512.78 560.088V553.892C512.78 539.228 524.667 527.343 539.329 527.343H614.928Z" fill="#2D2C44"/>
<path d="M538.566 527.345V630.472L515.275 625.654L512.304 553.894C512.304 539.229 523.559 527.345 538.566 527.345Z" fill="#2D2C44"/>
<path d="M498.79 611.97C487.987 612.22 479.305 621.048 479.305 631.912C479.305 632.926 480.127 633.748 481.141 633.748H498.79V611.97Z" fill="white"/>
<path d="M512.948 593.682V610.122C512.948 611.135 512.125 611.957 511.113 611.957H499.258C498.648 611.957 498.046 611.986 497.449 612.039V628.042H539.519V593.682H512.948Z" fill="#361710"/>
<path d="M531.628 606.395C531.628 609.473 529.131 611.97 526.053 611.97C522.973 611.97 520.477 609.473 520.477 606.395C520.477 603.315 522.973 600.818 526.053 600.818C529.131 600.818 531.628 603.315 531.628 606.395Z" fill="white"/>
<path d="M480.478 625.164C479.721 627.271 479.304 629.542 479.304 631.911C479.304 632.925 480.127 633.746 481.141 633.746H537.683C538.697 633.746 539.52 632.925 539.52 631.911V625.164H480.478Z" fill="white"/>
<path d="M652.368 228.522C669.403 236.992 679.256 249.514 681.924 266.078C684.078 279.175 681.924 292.222 675.458 305.223C664.644 326.968 644.513 342.75 615.066 352.571C604.798 355.993 597.184 362.133 592.22 370.987C590.489 373.902 588.704 377.206 586.865 380.908C583.401 387.87 574.948 390.709 567.984 387.246L561.426 383.984C554.464 380.522 551.625 372.068 555.087 365.106C564.954 345.265 577.158 332.953 591.705 328.162C607.422 322.976 619.973 315.868 629.361 306.834C634.779 301.559 639.246 295.394 642.757 288.331C646.38 281.046 647.596 274.522 646.409 268.758C645.215 262.155 640.982 257.602 633.699 255.098C626.921 252.706 620.122 254.846 613.308 261.523C612.969 261.845 612.632 262.175 612.297 262.515C607.398 267.49 599.573 268.085 593.955 263.94L588.448 259.879C581.63 254.849 580.745 244.957 586.589 238.824C592.395 232.729 599.063 228.07 606.595 224.843C614.758 221.354 624.107 220.549 634.638 222.431C640.179 223.37 646.09 225.399 652.368 228.522Z" fill="#FCC822"/>
<path d="M625.083 429.204C625.542 429.204 625.938 428.892 626.054 428.447C626.512 426.675 628.11 425.361 630.027 425.361C631.946 425.361 633.543 426.675 634.001 428.447C634.115 428.892 634.512 429.204 634.972 429.204C635.616 429.204 636.124 428.602 635.967 427.976C635.296 425.312 632.9 423.338 630.027 423.338C627.154 423.338 624.758 425.312 624.088 427.976C623.93 428.602 624.437 429.204 625.083 429.204Z" fill="#F05B4E"/>
<path d="M642.924 427.429C641.988 422.98 638.838 419.304 634.616 417.696C633.822 417.394 632.921 417.537 632.292 418.105C631.593 418.734 630.831 419.408 630.027 419.408C629.182 419.408 628.384 418.698 627.656 418.041C627.036 417.481 626.156 417.324 625.368 417.608C621.564 418.974 618.535 422.027 617.223 425.918C616.817 427.123 617.407 428.518 618.625 428.884C619.818 429.24 620.996 428.571 621.354 427.454C622.574 423.653 626.214 420.999 630.384 421.24C634.555 421.481 637.865 424.537 638.639 428.451C638.833 429.434 639.657 430.161 640.655 430.219H640.657C642.123 430.219 643.226 428.864 642.924 427.429Z" fill="#361710"/>
<path d="M557.99 527.509C557.99 527.509 585.846 528.252 597.977 538.544C610.105 548.835 612.863 549.019 612.863 549.019C612.863 549.019 614.623 528.309 621.187 514.862C627.753 501.417 619.479 505.097 617.825 507.117C616.171 509.138 595.404 526.584 595.404 526.584L591.295 527.345L557.99 527.509Z" fill="#727293"/>
<path d="M723.172 323.795C723.172 323.795 721.337 330.833 724.357 332.439C727.381 334.047 735.106 334.889 735.183 332.439C735.259 329.992 737.402 327.62 733.577 325.936C729.751 324.254 725.238 323.795 725.238 323.795H723.172Z" fill="#C9BDBD"/>
<path d="M797.124 241.275C797.045 241.29 796.967 241.306 796.888 241.324C796.265 241.458 795.899 241.584 795.899 241.584V241.612C795.752 241.666 795.601 241.713 795.457 241.777C787.414 245.373 787.414 252.733 787.414 252.733L792.377 267.454C792.377 267.454 793.765 267.52 795.842 267.33L795.698 333.998L796.419 334.412C801.807 337.503 808.429 337.517 813.827 334.443L814.613 333.998C814.613 333.998 815.576 307.216 815.933 270.814C816.238 239.829 801.514 240.415 797.124 241.275Z" fill="#161616"/>
<path d="M785.409 251.785L788.383 247.863C788.761 247.367 789.458 247.249 789.971 247.603C793.219 249.835 803.809 257.937 802.363 267.692L785.409 251.785Z" fill="white"/>
<path d="M772.926 313.945C772.932 313.906 775.965 313.566 776.148 313.533C778.801 313.045 781.405 312.247 783.877 311.167C791.516 307.827 797.39 301.664 800.296 293.833C802.381 288.209 802.967 282.124 802.739 276.162C802.407 267.418 800.388 257.864 792.688 252.519C786.13 247.97 782.918 249.351 782.918 249.351C782.918 249.351 772.929 313.923 772.926 313.945Z" fill="#161616"/>
<path d="M774.711 302.744L761.354 301.896C761.354 301.896 759.516 322.779 759.465 322.776C759.465 322.776 760.182 327.008 766.102 327.478C772.024 327.944 773.762 323.68 773.762 323.68C773.719 323.561 774.711 302.744 774.711 302.744Z" fill="#F8D0B7"/>
<path d="M766.581 318.924C762.197 318.577 760.607 317.042 760.076 316.269C760.629 310.141 761.354 301.896 761.354 301.896L774.711 302.744C774.711 302.744 774.332 310.719 774.052 316.827C773.689 317.303 771.82 319.335 766.581 318.924Z" fill="#EFBDAC"/>
<path d="M768.998 309.421L755.641 308.573C755.641 308.573 755.301 311.235 755.004 313.497C754.959 313.826 758.76 314.65 759.174 314.742C762.41 315.466 765.656 315.25 768.891 314.642C768.932 312.309 768.998 309.421 768.998 309.421Z" fill="#CF9166"/>
<path d="M739.507 271.18C739.882 268.496 740.166 266.22 742.325 263.683C747.605 257.484 756.031 253.944 764.119 253.958C776.286 253.978 788.903 258.642 792.155 271.37C793.269 275.729 793.296 280.3 792.864 284.779C792.186 291.843 790.295 298.983 786.033 304.657C780.925 311.456 772.485 315.623 763.982 315.544C750.997 315.424 740.605 308.446 737.112 297.119C734.597 288.965 736.945 282.578 738.886 274.649C739.192 273.398 739.357 272.256 739.507 271.18Z" fill="#F8D0B7"/>
<path d="M797.392 286.255C797.421 286.293 797.458 286.347 797.458 286.347C797.458 286.347 797.453 286.29 797.439 286.186C797.423 286.085 797.4 285.926 797.335 285.733C797.268 285.542 797.179 285.303 796.999 285.049C796.823 284.794 796.572 284.507 796.175 284.269C795.98 284.147 795.75 284.042 795.496 283.953C795.368 283.911 795.234 283.872 795.094 283.847L794.988 283.825L794.871 283.807L794.69 283.78C794.578 283.759 794.428 283.749 794.272 283.743C794.114 283.731 793.962 283.728 793.818 283.734C793.668 283.735 793.518 283.74 793.367 283.758C793.217 283.773 793.066 283.787 792.917 283.816C792.744 283.844 792.578 283.893 792.408 283.935C792.422 282.793 792.383 281.651 792.27 280.519C793.75 280.309 795.406 280.453 797.243 281.224C804.982 284.475 801.151 299.313 788.939 299.93C789.254 299.274 789.538 298.608 789.803 297.934C796.345 296.037 798.752 289.593 797.392 286.255Z" fill="#F8D0B7"/>
<path d="M793.597 284.755C793.707 284.731 793.815 284.717 793.925 284.704C794.037 284.685 794.141 284.676 794.238 284.671C794.333 284.664 794.432 284.656 794.565 284.662L794.749 284.664L794.795 284.665H794.818H794.829C794.819 284.664 794.861 284.668 794.807 284.662H794.812L794.883 284.668C794.981 284.673 795.072 284.688 795.164 284.698C795.347 284.728 795.524 284.771 795.686 284.832C796.34 285.082 796.783 285.517 797.053 285.827C797.186 285.984 797.291 286.111 797.356 286.206C797.378 286.237 797.377 286.233 797.392 286.254C798.752 289.592 796.345 296.036 789.803 297.932C791.051 294.755 791.787 291.394 792.154 288.049C792.26 287.089 792.336 286.127 792.379 285.161C792.673 285.036 792.968 284.903 793.268 284.827C793.377 284.795 793.487 284.775 793.597 284.755Z" fill="#FFB7A1"/>
<path d="M793.368 283.758C793.518 283.739 793.669 283.734 793.817 283.733C793.963 283.727 794.113 283.73 794.271 283.742C794.429 283.749 794.579 283.759 794.69 283.78L794.87 283.807L794.988 283.825L795.093 283.847C795.233 283.872 795.368 283.911 795.496 283.953C795.751 284.04 795.98 284.148 796.176 284.269C796.571 284.507 796.823 284.793 797 285.049C797.18 285.303 797.269 285.541 797.334 285.733C797.4 285.926 797.424 286.084 797.44 286.186C797.452 286.29 797.458 286.345 797.458 286.345C797.458 286.345 797.421 286.293 797.392 286.255C797.376 286.234 797.379 286.238 797.355 286.206C797.291 286.112 797.186 285.986 797.053 285.828C796.783 285.519 796.341 285.083 795.685 284.833C795.525 284.772 795.346 284.729 795.165 284.699C795.071 284.689 794.98 284.674 794.884 284.67L794.812 284.664H794.808C794.86 284.67 794.818 284.665 794.829 284.667H794.818H794.794L794.75 284.665L794.565 284.662C794.431 284.656 794.332 284.665 794.237 284.672C794.14 284.677 794.037 284.686 793.924 284.705C793.814 284.719 793.706 284.732 793.596 284.756C793.487 284.777 793.376 284.796 793.269 284.829C792.967 284.904 792.674 285.037 792.378 285.162C792.397 284.754 792.405 284.345 792.409 283.935C792.579 283.893 792.745 283.844 792.916 283.816C793.065 283.788 793.218 283.773 793.368 283.758Z" fill="#FFA792"/>
<path d="M758.283 284.302C758.283 284.302 758.622 290.142 755.914 289.516C750.671 288.312 750.06 299.652 758.273 295.851C761.373 294.418 760.896 284.52 760.896 284.52L758.283 284.302Z" fill="#F48470"/>
<path d="M749.232 299.794C749.078 302.227 746.948 304.072 744.474 303.914C741.999 303.757 740.117 301.659 740.268 299.226C740.424 296.793 742.555 294.949 745.03 295.105C747.504 295.263 749.387 297.361 749.232 299.794Z" fill="#FFB7A1"/>
<path d="M781.552 298.997C781.397 301.431 779.266 303.275 776.788 303.117C774.317 302.961 772.436 300.864 772.587 298.432C772.744 295.999 774.873 294.155 777.346 294.311C779.822 294.467 781.706 296.567 781.552 298.997Z" fill="#FFB7A1"/>
<path d="M741.261 280.753C741.261 280.753 741.388 280.588 741.663 280.347C741.8 280.228 741.969 280.076 742.18 279.936C742.386 279.786 742.629 279.634 742.906 279.481C743.181 279.328 743.491 279.178 743.822 279.043C744.16 278.912 744.518 278.772 744.905 278.677C745.284 278.562 745.687 278.491 746.099 278.424C746.512 278.35 746.938 278.342 747.36 278.303C747.782 278.305 748.208 278.308 748.622 278.333C749.036 278.376 749.442 278.43 749.829 278.491C750.215 278.577 750.585 278.671 750.932 278.761C751.283 278.86 751.597 278.993 751.888 279.103C752.178 279.219 752.444 279.321 752.667 279.451C752.892 279.57 753.085 279.683 753.243 279.774C753.554 279.956 753.725 280.076 753.725 280.076C753.725 280.076 753.509 280.073 753.151 280.04C752.972 280.025 752.755 280.008 752.508 279.978C752.269 279.941 751.989 279.927 751.689 279.904C751.391 279.884 751.075 279.832 750.737 279.816C750.398 279.798 750.046 279.779 749.683 279.746C749.317 279.736 748.945 279.734 748.563 279.713C748.185 279.718 747.803 279.721 747.418 279.727C747.225 279.736 747.033 279.747 746.844 279.758C746.652 279.77 746.462 279.768 746.276 279.794C746.087 279.814 745.901 279.831 745.717 279.846C745.529 279.854 745.354 279.895 745.172 279.914C744.813 279.951 744.469 280.014 744.137 280.064C743.971 280.086 743.815 280.131 743.66 280.156C743.504 280.186 743.352 280.21 743.209 280.249C742.922 280.31 742.655 280.369 742.421 280.43C742.18 280.485 741.977 280.547 741.801 280.592C741.638 280.646 741.495 280.675 741.407 280.71C741.31 280.738 741.261 280.753 741.261 280.753Z" fill="#161616"/>
<path d="M776.724 278.812C776.724 278.812 776.592 278.651 776.311 278.416C776.167 278.306 775.996 278.157 775.783 278.024C775.57 277.881 775.319 277.737 775.042 277.591C774.763 277.448 774.449 277.311 774.109 277.185C773.765 277.066 773.404 276.938 773.016 276.858C772.633 276.752 772.227 276.694 771.814 276.641C771.399 276.58 770.974 276.586 770.551 276.56C770.126 276.575 769.705 276.593 769.29 276.633C768.877 276.688 768.472 276.755 768.086 276.831C767.704 276.928 767.338 277.033 766.993 277.136C766.651 277.243 766.34 277.389 766.05 277.506C765.763 277.632 765.501 277.746 765.284 277.879C765.064 278.006 764.874 278.126 764.722 278.221C764.411 278.415 764.246 278.54 764.246 278.54C764.246 278.54 764.46 278.532 764.819 278.486C764.997 278.467 765.214 278.441 765.458 278.404C765.699 278.357 765.974 278.336 766.274 278.3C766.57 278.273 766.887 278.212 767.226 278.183C767.564 278.156 767.913 278.123 768.275 278.079C768.639 278.059 769.015 278.043 769.394 278.009C769.772 278 770.154 277.994 770.539 277.983C770.731 277.988 770.923 277.992 771.115 277.997C771.302 278.003 771.493 277.995 771.683 278.018C771.87 278.033 772.058 278.041 772.242 278.047C772.428 278.053 772.61 278.086 772.788 278.099C773.151 278.125 773.494 278.177 773.829 278.218C773.996 278.23 774.152 278.273 774.308 278.293C774.465 278.317 774.619 278.337 774.761 278.367C775.05 278.422 775.321 278.471 775.555 278.526C775.798 278.572 776.003 278.627 776.176 278.666C776.347 278.717 776.488 278.742 776.58 278.772C776.674 278.795 776.724 278.812 776.724 278.812Z" fill="#050607"/>
<path d="M768.23 284.536C767.778 286.205 768.77 287.896 770.44 288.314C772.11 288.731 773.829 287.719 774.276 286.049C774.729 284.382 773.74 282.688 772.068 282.27C770.398 281.854 768.679 282.868 768.23 284.536Z" fill="#050607"/>
<path d="M769.488 283.978C769.326 284.582 769.736 285.208 770.407 285.374C771.076 285.544 771.751 285.19 771.915 284.585C772.077 283.981 771.665 283.355 770.996 283.188C770.326 283.019 769.651 283.374 769.488 283.978Z" fill="white"/>
<path d="M750.475 283.81C750.925 285.478 749.935 287.17 748.265 287.588C746.594 288.006 744.876 286.993 744.427 285.323C743.976 283.655 744.965 281.963 746.637 281.545C748.307 281.128 750.026 282.143 750.475 283.81Z" fill="#050607"/>
<path d="M749.216 283.251C749.38 283.855 748.968 284.481 748.299 284.648C747.628 284.817 746.953 284.463 746.791 283.857C746.627 283.254 747.039 282.628 747.709 282.462C748.378 282.292 749.054 282.648 749.216 283.251Z" fill="white"/>
<path d="M779.43 270.242C779.43 270.242 789.906 302.302 780.321 311.888C780.321 311.888 794.243 304.258 795.51 269.269L779.43 270.242Z" fill="#161616"/>
<path d="M793.551 276.923C797.149 276.344 797.4 261 796.854 258.909C794.977 251.718 784.711 247.3 778.442 244.948C768.568 241.247 756.155 240.639 747.224 247.053C742.438 250.492 740.089 255.331 737.857 260.606C737.445 261.579 732.985 273.841 732.958 273.841C732.96 273.841 766.959 275.572 766.691 275.557L769.905 275.721C769.905 275.721 791.022 277.329 793.551 276.923Z" fill="#161616"/>
<path d="M820.267 372.311H820.046C817.448 372.323 814.918 373.236 812.676 374.576C815.058 377.696 817.733 380.57 821.174 382.569C821.402 382.701 821.62 382.816 821.833 382.923C822.276 382.411 822.691 381.877 823.059 381.306C825.447 377.611 825.786 372.396 820.267 372.311Z" fill="#E8B79E"/>
<path d="M744.913 466.972C744.913 466.972 746.618 519.296 746.731 524.167C746.844 529.038 753.617 572.645 754.437 583.33C755.258 594.016 752.324 615.969 749.946 624.722L747.059 632.147C747.059 632.147 756.318 635.851 759.917 634.239C765.578 631.699 766.714 622.702 768.14 617.41C769.651 611.797 770.771 605.984 770.532 600.146C770.3 594.532 767.215 590.27 766.041 584.918C762.839 570.343 768.291 555.264 769.068 540.682C769.763 527.671 768.014 514.692 766.067 501.858C764.25 489.888 769.791 479.288 769.219 467.449C769.219 467.449 747.141 451.723 744.665 464.493" fill="#EFC8B1"/>
<path d="M748.925 627.342C748.782 627.986 750.672 628.669 751.101 628.862C754.219 630.275 759.165 631.639 761.733 628.473C764.87 624.62 765.589 617.934 766.919 613.28C768.422 608.013 769.987 601.956 769.521 596.424L769.301 593.817C769.301 593.817 776.637 598.299 776.176 604.521C775.714 610.745 769.456 621.178 769.065 627.687C768.824 631.698 766.873 635.687 763.597 638.069C758.59 641.709 749.942 641.451 744.589 638.705C742.609 637.69 741.048 632.971 743.641 631.778C746.874 630.293 752.104 615.096 751.559 614.585L749.945 624.721C749.945 624.721 748.925 627.336 748.925 627.342Z" fill="#122738"/>
<path d="M775.829 606.06C775.829 606.06 773.75 619.455 774.751 626.95L772.569 627.67L770.393 617.62L775.829 606.06Z" fill="#312E2F"/>
<path d="M794.563 606.06C794.563 606.06 792.807 626.113 793.809 633.61L790.62 633.699L789.127 617.62L794.563 606.06Z" fill="#0C1B26"/>
<path d="M761.506 466.972C761.506 466.972 765.351 519.296 765.464 524.167C765.577 529.038 772.35 572.645 773.17 583.33C773.991 594.016 771.057 615.969 768.679 624.722L765.793 632.147C765.793 632.147 775.053 635.851 778.65 634.239C784.312 631.699 785.448 622.702 786.874 617.41C788.385 611.797 789.505 605.984 789.265 600.146C789.035 594.532 785.949 590.27 784.773 584.918C781.572 570.343 787.024 555.264 787.802 540.682C788.496 527.671 786.748 514.692 784.801 501.858C782.984 489.888 788.525 479.288 787.952 467.449C787.952 467.449 763.735 451.723 761.257 464.493" fill="#F8D0B7"/>
<path d="M767.659 627.342C767.516 627.986 769.406 628.669 769.835 628.862C772.953 630.275 777.899 631.639 780.467 628.473C783.605 624.62 784.323 617.934 785.651 613.28C787.156 608.013 788.721 601.956 788.255 596.424L788.035 593.817C788.035 593.817 795.371 598.299 794.91 604.521C794.447 610.745 788.19 621.178 787.799 627.687C787.558 631.698 785.608 635.687 782.331 638.069C777.324 641.709 768.676 641.451 763.323 638.705C761.343 637.69 759.782 632.971 762.375 631.778C765.608 630.293 770.838 615.096 770.293 614.585L768.679 624.721C768.679 624.721 767.66 627.336 767.659 627.342Z" fill="#122738"/>
<path d="M785.982 354.55C787.804 345.949 794.172 337.155 794.561 335.224C784.522 325.195 775.562 321.633 773.453 320.976L760.971 321.031C757.631 322.388 754.265 323.679 750.915 325.009C749.655 325.507 748.479 325.77 747.685 326.866C746.712 328.207 746.217 330.507 745.576 332.062C743.823 336.314 742.019 340.629 741.154 345.186C740.594 348.127 741.29 351.296 742.482 354.55H785.982Z" fill="#F8D0B7"/>
<path d="M798.484 420.263C794.521 408.923 789.174 397.972 787.175 386.044C780.227 388.99 753.809 388.09 748.659 383.535C747.532 398.355 739.931 412.523 736.322 426.952C734.066 435.97 732.184 445.139 731.845 454.452C731.494 464.195 735.005 493.768 735.718 504.652C764.332 523.166 796.849 505.409 798.145 502.051C804.944 484.448 804.613 458.116 802.931 439.152C802.351 432.6 800.62 426.375 798.484 420.263Z" fill="#122738"/>
<path d="M736.321 426.952C736.171 427.548 736.03 428.149 735.884 428.747C746.053 434.188 785.683 437.463 800.653 427.121C800.011 424.813 799.276 422.529 798.484 420.263C794.677 409.37 789.601 398.831 787.434 387.446L781.375 387.307C775.114 388.031 766.092 387.854 758.97 386.8L750.653 386.611C750.653 386.611 747.656 409.321 738.006 421.038C737.389 423.006 736.815 424.977 736.321 426.952Z" fill="#0B1C28"/>
<path d="M760.055 342.653C760.029 342.225 759.977 341.808 759.921 341.391C759.91 341.321 759.9 341.254 759.888 341.182C759.156 336.281 756.352 332.179 752.747 329.445C748.22 326.17 743.399 323.349 738.654 320.415C729.126 314.633 720.956 309.979 711.317 304.378C708.329 298.864 705.295 293.384 702.137 287.992C700.541 285.297 698.947 282.604 697.153 280.046C695.134 277.691 693.662 274.963 692.221 272.154C689.311 266.594 686.803 260.663 682.799 255.865C680.611 253.348 678.23 251.057 675.739 248.898C675.964 249.287 683.505 262.439 682.732 275.618C682.732 275.618 682.717 275.622 682.706 275.625C683.61 276.158 684.509 276.718 685.414 277.249L686.391 277.841L686.879 278.137C687.061 278.231 687.215 278.342 687.211 278.442C687.464 278.968 687.715 279.86 687.938 280.599C688.836 283.719 689.763 286.85 690.86 289.891C693.045 295.964 695.781 301.816 699.573 306.814C701.468 309.295 703.597 311.622 706.027 313.518C708.414 315.448 710.838 317.331 713.278 319.188C718.165 322.898 721.711 325.477 726.824 328.865C731.943 332.243 737.168 335.469 742.621 338.312C748.13 341.049 753.761 343.624 760.084 344.585C760.089 344.475 760.076 344.369 760.078 344.259C760.096 343.953 760.107 343.398 760.055 342.653Z" fill="#EFC8B1"/>
<path d="M679.188 255.91C679.017 257.808 677.96 262.653 677.243 264.376C675.881 264.171 674.546 263.609 673.363 262.897C672.05 262.15 671.041 261.047 669.775 260.073C669.137 259.61 668.448 259.201 667.668 258.934C666.883 258.725 665.993 258.471 664.955 259.133C664.835 259.227 664.665 259.368 664.588 259.637C664.487 259.92 664.566 260.003 664.566 260.189C664.634 260.441 664.729 260.651 664.832 260.837C665.042 261.206 665.272 261.539 665.517 261.85C666.004 262.479 666.527 263.057 667.061 263.622C669.155 265.904 671.516 267.913 673.685 270.056L675.285 271.727C675.862 272.3 676.537 272.738 677.236 273.106C678.635 273.842 680.136 274.291 681.493 274.933C681.98 275.182 682.454 275.47 682.931 275.756V261.231C681.08 260.681 680.82 256.852 679.188 255.91Z" fill="#EFC8B1"/>
<path d="M726.873 313.406C726.873 313.406 729.408 317.523 728.605 325.783C727.802 334.046 724.358 332.44 724.358 332.44C724.358 332.44 732.965 338.98 741.571 343.571C750.178 348.161 749.833 326.243 749.833 326.243C749.833 326.243 727.78 310.668 726.873 313.406Z" fill="white"/>
<path d="M748.49 386.024C748.459 386.611 748.199 387.353 748.614 387.639C761.835 396.731 787.473 387.246 787.29 386.121C786.401 380.696 786.256 375.094 787.299 369.679C789.644 357.486 798.643 345.67 794.705 332.838C794.69 332.793 794.676 332.747 794.66 332.702C793.335 328.75 780.275 324.167 779.138 323.43C779.521 324.434 778.467 325.593 778.106 326.045C776.326 328.259 773.525 329.642 770.852 330.427C767.748 331.34 764.491 331.709 761.261 331.584C759.45 331.513 757.631 331.281 755.854 330.918C754.764 330.696 753.418 330.348 752.691 329.452C751.354 327.805 752.618 325.41 753.444 323.816C753.444 323.816 751.863 324.407 749.836 324.446C747.32 324.494 739.623 319.389 739.623 319.389C738.205 323.752 740.374 341.114 738.687 345.341C737.625 348.002 737.069 350.931 737.588 353.749C738.428 358.303 741.837 361.766 743.297 366.08C745.15 371.557 748.805 380.059 748.49 386.024Z" fill="white"/>
<path d="M747.999 380.798C747.999 380.798 744.291 408.944 731.821 418.737C722.485 426.067 780.943 434.393 798.742 420.773C799.499 420.191 799.611 419.086 798.992 418.359C798.01 417.204 796.5 414.808 794.56 409.839C790.954 400.605 786.743 381.675 786.743 381.675L747.999 380.798Z" fill="white"/>
<path d="M826.413 382.655C825.464 383.845 823.823 384.108 821.176 382.569C817.596 380.488 814.84 377.466 812.387 374.201C809.258 370.037 805.536 366.343 801.976 362.529C797.168 357.377 792.125 352.318 787.713 346.82C784.108 342.332 781.235 338.922 782.918 332.657C783.174 331.703 783.546 330.752 784.2 330.003C785.192 328.864 786.767 328.569 788.204 328.74C791.785 329.17 794.18 331.691 796.427 334.199C798.768 336.812 801.369 339.218 803.821 341.73C809.057 347.098 814.176 352.628 818.493 358.768C821.308 362.772 824.307 366.733 826.258 371.259C828.241 375.86 828.349 380.231 826.413 382.655Z" fill="#EFC8B1"/>
<path d="M820.267 372.311H820.046C817.448 372.323 814.918 373.236 812.676 374.576C815.058 377.696 817.733 380.57 821.174 382.569C821.402 382.701 821.62 382.816 821.833 382.923C822.276 382.411 822.691 381.877 823.059 381.306C825.447 377.611 825.786 372.396 820.267 372.311Z" fill="#E8B79E"/>
<path d="M822.733 373.472C822.66 373.482 822.586 373.493 822.513 373.503C819.622 373.94 816.981 375.491 814.802 377.45C810.17 381.614 806.359 387.083 802.211 391.75C798.981 395.383 795.748 399.408 792.178 402.934C792.401 403.172 792.591 403.44 792.732 403.751C794.127 406.838 794.648 408.755 796.569 411.547C800.047 405.3 814.603 396.254 822.699 387.62C824.297 385.913 825.829 384.096 826.8 381.968C828.626 377.966 828.206 372.755 822.733 373.472Z" fill="#EFC8B1"/>
<path d="M791.973 407.978C791.967 407.987 788.034 412.53 787.276 412.454C786.517 412.378 785.518 411.404 785.518 411.404L790.677 404.688C790.677 404.688 785.235 409.843 783.913 409.929C782.59 410.017 781.602 408.934 781.602 408.934L788.571 401.632C788.571 401.632 783.977 407.089 782.395 407.587C780.811 408.088 779.596 407.09 779.596 407.09L786.327 398.89L786.087 400.181C786.087 400.181 782.771 402.697 781.48 402.459C780.191 402.221 779.171 401.463 779.171 401.463C779.171 401.463 782.704 398.968 784.526 397.177C786.346 395.388 788.178 395.68 788.178 395.68C791.438 398.376 793.462 402.489 795.542 406.15C797.15 408.98 797.193 414.402 797.193 414.402C797.193 414.402 796.182 416.233 791.973 407.978Z" fill="#F8D0B7"/>
<path d="M742.571 269.917C742.571 269.917 736.788 281.047 737.112 297.119C737.112 297.119 726.289 282.959 740.413 262.727L742.571 269.917Z" fill="#161616"/>
<path d="M799.34 363.041C799.34 363.041 812.217 361.206 814.824 351.565C814.824 351.565 796.181 330.161 788.136 327.513C780.091 324.866 776.571 334.123 780.397 340.626C784.222 347.129 799.34 363.041 799.34 363.041Z" fill="white"/>
<path d="M738.851 344.842C738.851 344.842 739.408 342.046 741.645 338.948C743.883 335.849 739.395 337.762 735.053 339.772C735.053 339.772 738.881 341.906 738.875 343.285C738.872 344.06 738.851 344.842 738.851 344.842Z" fill="#E1E4E5"/>
<path d="M758.938 303.8C759.397 303.8 759.793 303.488 759.909 303.043C760.367 301.269 761.964 299.957 763.882 299.957C765.799 299.957 767.398 301.269 767.856 303.043C767.97 303.488 768.367 303.8 768.827 303.8C769.471 303.8 769.979 303.198 769.822 302.572C769.151 299.908 766.755 297.933 763.882 297.933C761.009 297.933 758.613 299.908 757.943 302.572C757.785 303.198 758.292 303.8 758.938 303.8Z" fill="#F05B4E"/>
<defs>
<filter id="filter0_d_0_1" x="433.656" y="246.163" width="49.8162" height="48.5732" filterUnits="userSpaceOnUse" color-interpolation-filters="sRGB">
<feFlood flood-opacity="0" result="BackgroundImageFix"/>
<feColorMatrix in="SourceAlpha" type="matrix" values="0 0 0 0 0 0 0 0 0 0 0 0 0 0 0 0 0 0 127 0" result="hardAlpha"/>
<feMorphology radius="6.96683" operator="erode" in="SourceAlpha" result="effect1_dropShadow_0_1"/>
<feOffset dy="10.4502"/>
<feGaussianBlur stdDeviation="11.6114"/>
<feColorMatrix type="matrix" values="0 0 0 0 0.243137 0 0 0 0 0.741176 0 0 0 0 1 0 0 0 0.45 0"/>
<feBlend mode="normal" in2="BackgroundImageFix" result="effect1_dropShadow_0_1"/>
<feBlend mode="normal" in="SourceGraphic" in2="effect1_dropShadow_0_1" result="shape"/>
</filter>
<filter id="filter1_d_0_1" x="902.026" y="452.819" width="49.8162" height="48.5733" filterUnits="userSpaceOnUse" color-interpolation-filters="sRGB">
<feFlood flood-opacity="0" result="BackgroundImageFix"/>
<feColorMatrix in="SourceAlpha" type="matrix" values="0 0 0 0 0 0 0 0 0 0 0 0 0 0 0 0 0 0 127 0" result="hardAlpha"/>
<feMorphology radius="6.96683" operator="erode" in="SourceAlpha" result="effect1_dropShadow_0_1"/>
<feOffset dy="10.4502"/>
<feGaussianBlur stdDeviation="11.6114"/>
<feColorMatrix type="matrix" values="0 0 0 0 0.243137 0 0 0 0 0.741176 0 0 0 0 1 0 0 0 0.45 0"/>
<feBlend mode="normal" in2="BackgroundImageFix" result="effect1_dropShadow_0_1"/>
<feBlend mode="normal" in="SourceGraphic" in2="effect1_dropShadow_0_1" result="shape"/>
</filter>
<filter id="filter2_d_0_1" x="717.446" y="615.575" width="49.8162" height="48.5733" filterUnits="userSpaceOnUse" color-interpolation-filters="sRGB">
<feFlood flood-opacity="0" result="BackgroundImageFix"/>
<feColorMatrix in="SourceAlpha" type="matrix" values="0 0 0 0 0 0 0 0 0 0 0 0 0 0 0 0 0 0 127 0" result="hardAlpha"/>
<feMorphology radius="6.96683" operator="erode" in="SourceAlpha" result="effect1_dropShadow_0_1"/>
<feOffset dy="10.4502"/>
<feGaussianBlur stdDeviation="11.6114"/>
<feColorMatrix type="matrix" values="0 0 0 0 0.243137 0 0 0 0 0.741176 0 0 0 0 1 0 0 0 0.45 0"/>
<feBlend mode="normal" in2="BackgroundImageFix" result="effect1_dropShadow_0_1"/>
<feBlend mode="normal" in="SourceGraphic" in2="effect1_dropShadow_0_1" result="shape"/>
</filter>
<filter id="filter3_d_0_1" x="395.744" y="623.194" width="68.2741" height="65.7054" filterUnits="userSpaceOnUse" color-interpolation-filters="sRGB">
<feFlood flood-opacity="0" result="BackgroundImageFix"/>
<feColorMatrix in="SourceAlpha" type="matrix" values="0 0 0 0 0 0 0 0 0 0 0 0 0 0 0 0 0 0 127 0" result="hardAlpha"/>
<feMorphology radius="6.96683" operator="erode" in="SourceAlpha" result="effect1_dropShadow_0_1"/>
<feOffset dy="10.4502"/>
<feGaussianBlur stdDeviation="11.6114"/>
<feColorMatrix type="matrix" values="0 0 0 0 0.243137 0 0 0 0 0.741176 0 0 0 0 1 0 0 0 0.45 0"/>
<feBlend mode="normal" in2="BackgroundImageFix" result="effect1_dropShadow_0_1"/>
<feBlend mode="normal" in="SourceGraphic" in2="effect1_dropShadow_0_1" result="shape"/>
</filter>
<filter id="filter4_d_0_1" x="707.064" y="553.471" width="53.277" height="51.7856" filterUnits="userSpaceOnUse" color-interpolation-filters="sRGB">
<feFlood flood-opacity="0" result="BackgroundImageFix"/>
<feColorMatrix in="SourceAlpha" type="matrix" values="0 0 0 0 0 0 0 0 0 0 0 0 0 0 0 0 0 0 127 0" result="hardAlpha"/>
<feMorphology radius="6.96683" operator="erode" in="SourceAlpha" result="effect1_dropShadow_0_1"/>
<feOffset dy="10.4502"/>
<feGaussianBlur stdDeviation="11.6114"/>
<feColorMatrix type="matrix" values="0 0 0 0 0.243137 0 0 0 0 0.741176 0 0 0 0 1 0 0 0 0.45 0"/>
<feBlend mode="normal" in2="BackgroundImageFix" result="effect1_dropShadow_0_1"/>
<feBlend mode="normal" in="SourceGraphic" in2="effect1_dropShadow_0_1" result="shape"/>
</filter>
<filter id="filter5_d_0_1" x="151.019" y="552.399" width="53.277" height="51.7856" filterUnits="userSpaceOnUse" color-interpolation-filters="sRGB">
<feFlood flood-opacity="0" result="BackgroundImageFix"/>
<feColorMatrix in="SourceAlpha" type="matrix" values="0 0 0 0 0 0 0 0 0 0 0 0 0 0 0 0 0 0 127 0" result="hardAlpha"/>
<feMorphology radius="6.96683" operator="erode" in="SourceAlpha" result="effect1_dropShadow_0_1"/>
<feOffset dy="10.4502"/>
<feGaussianBlur stdDeviation="11.6114"/>
<feColorMatrix type="matrix" values="0 0 0 0 0.243137 0 0 0 0 0.741176 0 0 0 0 1 0 0 0 0.45 0"/>
<feBlend mode="normal" in2="BackgroundImageFix" result="effect1_dropShadow_0_1"/>
<feBlend mode="normal" in="SourceGraphic" in2="effect1_dropShadow_0_1" result="shape"/>
</filter>
<filter id="filter6_d_0_1" x="597.47" y="640.203" width="42.8944" height="42.1487" filterUnits="userSpaceOnUse" color-interpolation-filters="sRGB">
<feFlood flood-opacity="0" result="BackgroundImageFix"/>
<feColorMatrix in="SourceAlpha" type="matrix" values="0 0 0 0 0 0 0 0 0 0 0 0 0 0 0 0 0 0 127 0" result="hardAlpha"/>
<feMorphology radius="6.96683" operator="erode" in="SourceAlpha" result="effect1_dropShadow_0_1"/>
<feOffset dy="10.4502"/>
<feGaussianBlur stdDeviation="11.6114"/>
<feColorMatrix type="matrix" values="0 0 0 0 0.243137 0 0 0 0 0.741176 0 0 0 0 1 0 0 0 0.45 0"/>
<feBlend mode="normal" in2="BackgroundImageFix" result="effect1_dropShadow_0_1"/>
<feBlend mode="normal" in="SourceGraphic" in2="effect1_dropShadow_0_1" result="shape"/>
</filter>
<linearGradient id="paint0_linear_0_1" x1="449.912" y1="251.969" x2="468.645" y2="253.856" gradientUnits="userSpaceOnUse">
<stop stop-color="#FCC822"/>
<stop offset="1" stop-color="#FFDD72"/>
</linearGradient>
<linearGradient id="paint1_linear_0_1" x1="918.282" y1="458.624" x2="937.014" y2="460.512" gradientUnits="userSpaceOnUse">
<stop stop-color="#FCC822"/>
<stop offset="1" stop-color="#FFDD72"/>
</linearGradient>
<linearGradient id="paint2_linear_0_1" x1="733.702" y1="621.381" x2="752.435" y2="623.268" gradientUnits="userSpaceOnUse">
<stop stop-color="#FCC822"/>
<stop offset="1" stop-color="#FFDD72"/>
</linearGradient>
<linearGradient id="paint3_linear_0_1" x1="412" y1="629" x2="450.714" y2="632.901" gradientUnits="userSpaceOnUse">
<stop stop-color="#FCC822"/>
<stop offset="1" stop-color="#FFDD72"/>
</linearGradient>
<linearGradient id="paint4_linear_0_1" x1="723.32" y1="559.277" x2="745.799" y2="561.542" gradientUnits="userSpaceOnUse">
<stop stop-color="#FCC822"/>
<stop offset="1" stop-color="#FFDD72"/>
</linearGradient>
<linearGradient id="paint5_linear_0_1" x1="167.275" y1="558.205" x2="189.754" y2="560.47" gradientUnits="userSpaceOnUse">
<stop stop-color="#FCC822"/>
<stop offset="1" stop-color="#FFDD72"/>
</linearGradient>
<linearGradient id="paint6_linear_0_1" x1="613.726" y1="646.009" x2="624.965" y2="647.141" gradientUnits="userSpaceOnUse">
<stop stop-color="#FDC68A"/>
<stop offset="1" stop-color="#FCC822"/>
</linearGradient>
<linearGradient id="paint7_linear_0_1" x1="634.491" y1="393.308" x2="634.491" y2="406.157" gradientUnits="userSpaceOnUse">
<stop stop-color="#FCC822"/>
<stop offset="1" stop-color="#FFDD72"/>
</linearGradient>
</defs>
</svg>
